<?xml version="1.0" encoding="UTF-8"?><svg id="_Слой_1" xmlns="http://www.w3.org/2000/svg" viewBox="0 0 2670 2000"><rect x="0" width="2670" height="2000" style="fill:#fff;"/><path d="M404.99,1941.1c-181.58-197.71-429.75-401.86-332.44-710.25,64.01-202.84,220.95-259.38,351.4-384.45,64.38-61.73,23.89-151.58,22.69-240.75-2.73-228.37,252.13-405.57,486.43-401.87,253.79,4,363.65,259.15,576.54,272.84,83.6,1.28,158.45-47.78,232.42-86.75,219.16-115.48,566.91-41.84,584.49,237.42,4.54,150.81-167.11,393.45,4.87,472.77,137.06,63.22,275.53,86.5,300.23,312.61,32.33,295.95-138.59,458.37-361.31,534.54l-1865.31-6.1Z" style="fill:#e3eaff;"/><path d="M523.74,815.65h252.68c31.28,0,56.63,25.36,56.63,56.63v117.79c0,31.28-25.35,56.63-56.63,56.63h-1.88l20.28,67.94c.89,2.99-2.56,5.37-5.04,3.48l-93.62-71.42h-172.42c-31.28,0-56.63-25.35-56.63-56.63v-117.79c0-31.28,25.35-56.63,56.63-56.63Z" style="fill:#fff;"/><path d="M776.3,914.56h-242.59c-15.48,0-28.03-12.55-28.03-28.03h0c0-15.48,12.55-28.03,28.03-28.03h242.59c15.48,0,28.03,12.55,28.03,28.03h0c0,15.48-12.55,28.03-28.03,28.03Z" style="fill:#e3eaff;"/><path d="M776.3,1000.17h-242.59c-15.48,0-28.03-12.55-28.03-28.03h0c0-15.48,12.55-28.03,28.03-28.03h242.59c15.48,0,28.03,12.55,28.03,28.03h0c0,15.48-12.55,28.03-28.03,28.03Z" style="fill:#e3eaff;"/><path d="M2070.1,497.7h-275.56c-34.11,0-61.76,27.65-61.76,61.76v128.46c0,34.11,27.65,61.76,61.76,61.76h2.04l-22.12,74.09c-.97,3.26,2.79,5.86,5.5,3.8l102.1-77.89h188.04c34.11,0,61.76-27.65,61.76-61.76v-128.46c0-34.11-27.65-61.76-61.76-61.76Z" style="fill:#fff;"/><path d="M1790.32,550.21h277.45c13.75,0,24.92,11.16,24.92,24.92v6.23c0,13.75-11.16,24.92-24.92,24.92h-277.45c-13.75,0-24.92-11.16-24.92-24.92v-6.23c0-13.75,11.16-24.92,24.92-24.92Z" style="fill:#e3eaff;"/><path d="M1802.41,634.97h129.92c15.47,0,28.03,12.56,28.03,28.03h0c0,15.47-12.56,28.03-28.03,28.03h-129.92c-15.47,0-28.03-12.56-28.03-28.03h0c0-15.47,12.56-28.03,28.03-28.03Z" style="fill:#e3eaff;"/><path d="M231.17,1449.49c10.44-7.89,22.98-11.84,37.6-11.84,31.57,0,48.28,17.18,48.28,41.32,0,13.93-6.73,28.09-20.43,42.25-17.41,18.34-29.94,27.39-37.84,27.39s-13.23-6.04-13.23-13.23c0-6.5,6.04-13,16.48-22.52.7-.7,1.39-1.39,1.86-1.62,11.84-10.91,15.55-16.95,15.55-24.37,0-9.29-6.27-14.39-15.32-14.39-4.18,0-9.05.93-14.86,2.79-5.8,1.86-9.98,2.79-12.53,2.79-6.5,0-13.93-5.57-13.93-14.86,0-4.87,2.79-9.52,8.36-13.69ZM262.97,1604.31c-14.16,0-23.68-10.68-23.68-23.68,0-11.14,9.52-21.82,23.68-21.82,12.3,0,21.82,10.68,21.82,21.82,0,12.77-9.05,23.68-21.82,23.68Z" style="fill:#fff;"/><path d="M2127.52,928.62c6.87-5.19,15.11-7.79,24.73-7.79,20.76,0,31.75,11.3,31.75,27.17,0,9.16-4.43,18.47-13.43,27.78-11.45,12.06-19.69,18.01-24.88,18.01s-8.7-3.97-8.7-8.7c0-4.27,3.97-8.55,10.84-14.81.46-.46.92-.92,1.22-1.07,7.79-7.17,10.23-11.14,10.23-16.03,0-6.11-4.12-9.46-10.08-9.46-2.75,0-5.95.61-9.77,1.83s-6.56,1.83-8.24,1.83c-4.28,0-9.16-3.66-9.16-9.77,0-3.21,1.83-6.26,5.5-9.01ZM2148.43,1030.44c-9.31,0-15.57-7.02-15.57-15.57,0-7.33,6.26-14.35,15.57-14.35,8.09,0,14.35,7.02,14.35,14.35,0,8.4-5.95,15.57-14.35,15.57Z" style="fill:#fff;"/><path d="M2584.11,1492.77h-289.82c-5.12,0-9.28-4.15-9.28-9.28v-249.48c0-5.12,4.15-9.28,9.28-9.28s9.28,4.15,9.28,9.28v240.2h280.55c5.12,0,9.28,4.15,9.28,9.28s-4.15,9.28-9.28,9.28Z" style="fill:#fff;"/><path d="M2316.23,1431.79c-2.32,0-4.65-.87-6.45-2.61-3.68-3.56-3.78-9.44-.22-13.12l93.67-96.9c3.08-3.19,8-3.75,11.72-1.34l44.29,28.73,46.71-54.27c3.34-3.88,9.2-4.32,13.09-.98,3.88,3.34,4.32,9.2.98,13.08l-51.99,60.41c-3.03,3.52-8.19,4.26-12.08,1.73l-44.68-28.98-88.36,91.4c-1.82,1.88-4.25,2.83-6.67,2.83Z" style="fill:#fff;"/><polygon points="2520.22 1332.07 2507.01 1305.29 2478.56 1296.21 2541.89 1264.76 2520.22 1332.07" style="fill:#fff;"/><path d="M637.01,588.08c-30.96,0-56.14-25.19-56.14-56.14s25.19-56.14,56.14-56.14,56.14,25.19,56.14,56.14-25.19,56.14-56.14,56.14ZM637.01,491.26c-22.43,0-40.68,18.25-40.68,40.68s18.25,40.68,40.68,40.68,40.68-18.25,40.68-40.68-18.25-40.68-40.68-40.68Z" style="fill:#fff;"/><path d="M2349.81,1034.92c-22.68,0-41.12-18.45-41.12-41.12s18.45-41.12,41.12-41.12,41.12,18.45,41.12,41.12-18.45,41.12-41.12,41.12ZM2349.81,964c-16.43,0-29.8,13.37-29.8,29.8s13.37,29.8,29.8,29.8,29.79-13.37,29.79-29.8-13.37-29.8-29.79-29.8Z" style="fill:#e3eaff;"/><path d="M190.97,1260.35c-20.36,0-36.92-16.56-36.92-36.92s16.56-36.92,36.92-36.92,36.92,16.56,36.92,36.92-16.56,36.92-36.92,36.92ZM190.97,1196.67c-14.75,0-26.75,12-26.75,26.75s12,26.75,26.75,26.75,26.75-12,26.75-26.75-12-26.75-26.75-26.75Z" style="fill:#fff;"/><circle cx="2150.18" cy="424.32" r="20.09" transform="translate(1386.92 2478.76) rotate(-80.78)" style="fill:#fff;"/><path d="M409.51,796.24c0,21.81-17.68,39.5-39.5,39.5s-39.5-17.68-39.5-39.5,17.68-39.5,39.5-39.5,39.5,17.68,39.5,39.5Z" style="fill:#e3eaff;"/><path d="M2290.3,346.43c0,16.4-13.29,29.69-29.69,29.69s-29.69-13.29-29.69-29.69,13.29-29.69,29.69-29.69,29.69,13.29,29.69,29.69Z" style="fill:#e3eaff;"/><path d="M2435.61,1059.44c0,14-11.35,25.35-25.34,25.35s-25.35-11.35-25.35-25.35,11.35-25.35,25.35-25.35,25.34,11.35,25.34,25.35Z" style="fill:#e3eaff;"/><path d="M2216.21,499.98c0,17.45-14.15,31.6-31.6,31.6s-31.6-14.15-31.6-31.6,14.15-31.6,31.6-31.6,31.6,14.15,31.6,31.6Z" style="fill:#fff;"/><path d="M762.87,442.59c0,17.7-14.35,32.05-32.05,32.05s-32.05-14.35-32.05-32.05,14.35-32.05,32.05-32.05,32.05,14.35,32.05,32.05Z" style="fill:#fff;"/><path d="M2278.69,1958.41H381.42c-6.19,0-11.21-5.02-11.21-11.21h0c0-6.19,5.02-11.21,11.21-11.21h1897.26c6.19,0,11.21,5.02,11.21,11.21h0c0,6.19-5.02,11.21-11.21,11.21Z" style="fill:#201d40;"/><polygon id="v-2" points="1009.02 976.95 1009.06 976.95 1038.18 977.06 1044.77 1045.84 1010.78 1063.79 974.53 1046.04 980.38 977.06 1009.02 976.95" style="fill:#f37a50;"/><path d="M929.01,946.59c17.92,44.79,60.97,69.68,96.15,55.61,35.18-14.08,49.16-61.8,31.24-106.58-17.92-44.79-60.97-69.68-96.15-55.61-35.18,14.08-49.16,61.8-31.24,106.58Z" style="fill:#f37a50;"/><path d="M1041.1,910.31c2.08,2.99,6.18,3.73,9.17,1.65,2.99-2.08,3.72-6.18,1.65-9.17-2.08-2.99-6.19-3.73-9.17-1.65-2.99,2.08-3.73,6.19-1.65,9.17Z"/><path d="M991.75,930.46c2.25,3.23,6.69,4.03,9.93,1.78,3.23-2.25,4.03-6.69,1.78-9.93-2.25-3.23-6.69-4.03-9.93-1.78-3.23,2.25-4.03,6.69-1.78,9.93Z"/><path d="M1031.1,920.83c8.91,7.02,20.05,15.5,20.05,15.5,0,0,.11,10.74-12.44,15.4,4.54-4.12,8.53-9.6,3.8-15.93-4.73-6.33-11.41-14.96-11.41-14.96Z" style="fill:#de623c;"/><path d="M978.76,926.17c-.25,0-.51-.03-.77-.09-1.77-.42-2.86-2.19-2.44-3.96,1.15-4.82,5.98-13.95,16-14,1.83.02,3.3,1.46,3.3,3.27,0,1.82-1.46,3.29-3.27,3.3-7.42.04-9.62,8.86-9.64,8.95-.36,1.51-1.71,2.53-3.2,2.53Z" style="fill:#201d40;"/><path d="M1034.2,896.38c-.47,0-.95-.12-1.38-.38-1.31-.77-1.74-2.44-.98-3.75.12-.2,3-5.03,8.44-6.03,3.72-.69,7.56.53,11.42,3.62,1.18.95,1.37,2.67.43,3.85-.94,1.18-2.67,1.37-3.85.43-2.56-2.05-4.92-2.89-7-2.51-2.96.55-4.7,3.39-4.71,3.42-.51.87-1.43,1.35-2.37,1.35Z" style="fill:#201d40;"/><path d="M904.54,913.14c-15.16-43.16,21.77-67.97,21.77-67.97,0,0-9.91-.89-11.09-14.8,7.42,2.31,15.73,2.15,23.03-.5,49.22-17.82,83.11-17.58,83.11,3.48,0,7.5,32.51,2.36,29.78,52.79.19-3.56-11.42-24.29-22.4-26.36-11.02-2.08-1.07,12.6-24,15.75-23.15,3.18-40.16-2.44-54.3,10.61-11.06,11.38-13.81,69.31-12.12,72.8-3.86-7.99-27.11-26.83-33.78-45.8Z" style="fill:#201d40;"/><path d="M1063.18,920.83s2.09,26.28-1.7,34.41c-3.94-10.54-12.41.63-20.36,1.68-19.22,2.54-53.89-3.86-57.32,24.96-23.48,7.43-45.48-42.84-45.48-42.84-1.35,56.16,39.75,88.05,98.89,78.71,38.96-6.16,42.58-60.41,25.98-96.92Z" style="fill:#201d40;"/><path d="M1022.67,974.68c-3.8-.91-7.76-2.46-11.86-4.65-1.07-.57-1.47-1.9-.9-2.97.57-1.07,1.9-1.47,2.97-.9,9.1,4.86,17.25,6.25,24.24,4.11,8.64-2.64,12.58-9.91,12.62-9.99.57-1.07,1.89-1.48,2.96-.91,1.07.56,1.48,1.88.92,2.95-.19.36-4.75,8.91-15.15,12.12-4.88,1.51-10.16,1.58-15.8.23Z" style="fill:#de623c;"/><path d="M937.76,939.41c9.89,5.56,14.22,16.62,9.68,24.71-4.55,8.09-16.25,10.15-26.14,4.6-9.89-5.55-14.22-16.62-9.68-24.71,4.55-8.09,16.25-10.15,26.14-4.6Z" style="fill:#f37a50;"/><path d="M936.25,963.66c.31-.21.57-.5.76-.85,2.72-5.03,2.27-10.16-1.19-13.72-3.55-3.64-9.27-4.69-13.62-2.5-1.22.62-1.71,2.11-1.09,3.33.62,1.22,2.11,1.71,3.33,1.09,2.38-1.2,5.82-.53,7.82,1.53,1.93,1.98,2.06,4.79.38,7.91-.65,1.21-.2,2.71,1,3.36.85.46,1.86.37,2.6-.15Z" style="fill:#de623c;"/><path d="M1042.72,1895.52c6.2-16.83,19.44-18.7,19.44-18.7,25.75,35.53,88.98,13.73,86.89,61.78-96.16-.62-136.13,0-136.13,0,.13-11.04,2.03-37.23,4.25-47.49l5.01.92,20.53,3.49Z"/><path d="M898.84,1896.45c6.2-16.83,19.44-18.7,19.44-18.7,25.75,35.53,88.98,13.73,86.89,61.78-96.16-.62-136.13,0-136.13,0,.13-11.04,2.03-37.23,4.25-47.49l5.01.92,20.53,3.49Z"/><path d="M1106.68,1334.43s15.61,227.71,9.27,278.33c-6.34,50.62-28.8,115.53-26.26,282.97-31.35,7.85-76.76,0-76.76,0,0,0-6.73-189.34,26.4-273.91-13.47-82.15-56.71-270.29-56.71-270.29l124.06-17.1Z" style="fill:#201d40;"/><path d="M1047.34,1340.65s-31.52,255.64-46.96,304.13c-15.43,48.49-45.53,89.49-73.47,254.44-32.21,1.61-62.21,0-62.21,0,0,0,4.35-209.24,54.52-256.82,1.7-83.3-8.11-300.1-8.11-300.1l136.23-1.64Z" style="fill:#2c2858;"/><g id="v"><path id="h-5" d="M902.01,1050.52s54.75-19.17,73.01-10.38c56.73,27.32,69.75,0,69.75,0,18.13,1.56,72.86,10.38,72.86,10.38,0,61.12,4.08,122.44,2.97,168.69-.78,40.28,6.89,149.88,6.89,149.88,0,0-60.37,15.83-117.47,16.24-57.11-.37-115.23-15.6-115.23-15.6,0,0,3.05-111.01,5.59-152.27-.82-46.25,1.64-105.99,1.64-166.94Z" style="fill:#e62552;"/></g><g id="c"><path id="c-2" d="M1214.96,1141.36c-22.6-53.92-89.66-88.22-97.33-90.83l-15.56,69.22c32.22,19.05,55.6,39.66,55.6,39.66-3.96,19.28-3.3,38.18-14.46,62.56,0,0,9.69-13.37,21.65-5.46,11.62,7.69,33-8.01,33-8.01,0,0,34.36-25.96,17.1-67.14Z" style="fill:#c4204a;"/></g><g id="c-3"><g id="c-4"><g id="c-5"><path id="c-6" d="M1202.36,1277.62c.39.12.78.2,1.17.24h1.29c2.36-.25,4.45-1.86,5.2-4.27l60.25-194.25c.12-.39.2-.78.24-1.18.03-.26.01-.51,0-.77,0-.15.01-.31,0-.46-.01-.14-.05-.26-.08-.4-.37-2.21-1.91-4.14-4.19-4.85-.37-.11-.75-.2-1.15-.25-.44-.05-.88-.04-1.31,0h-151.67l-60.78,206.41h151.12l-.1-.24Z" style="fill:#95a6db;"/><path id="c-7" d="M1113.51,1071.69c-3.23-1-6.66.8-7.66,4.03l-59.87,193.77-.14.45c-.99,3.22.8,6.62,4,7.63h0c3.23,1.02,6.66-.79,7.66-4.01l60.03-194.21c1-3.23-.8-6.65-4.03-7.66Z" style="fill:#768fdb;"/></g></g><path id="c-8" d="M1228.1,1194.93c.57-.38,1.18-.61,1.82-.79-.07-.1-.14-.18-.2-.28-3.77-5.69-3.52-12.5.56-15.2.67-.45,1.41-.74,2.18-.91-1.06-4.21-.11-8.24,2.81-10.17,1.16-.77,2.5-1.11,3.91-1.09-1.33-4.14-.27-8.49,2.99-10.65,4.08-2.7,10.01-.96,13.23,3.9,3.22,4.86,2.52,10.99-1.56,13.7-1.03.68-2.19,1.08-3.38,1.22,2.72,5.3,2.17,11.1-1.52,13.54-.67.44-1.41.74-2.18.91,1.06,4.21.11,8.24-2.81,10.17-1.08.71-2.31,1.06-3.61,1.09,1.35,3.62.49,7.53-2.38,9.43-3.45,2.29-8.45.81-11.17-3.29-2.72-4.1-2.13-9.28,1.32-11.57Z" style="fill:#f37a50;"/><path d="M1041.63,1182.65l13.83-8.01s3.83-19.61,26.03-20.08c-2.54,8.23-6.21,20.08-6.21,20.08,0,0,10.93,8.48,36.85-6.04,25.34-5.69,14.51,12.78,22.91,14.11,12.39,1.96-9.03,26.31-34.33,30.03-32.74,4.82-36.62-1.88-36.62-1.88l-18.52,6.47-3.94-34.69Z" style="fill:#f37a50;"/><path id="c-9" d="M913.69,1203.6c46.21-3.23,125.04-26.05,125.04-26.05,12.62,19.35,9.13,45.05,9.13,45.05-71.77,62.92-179.77,83.26-212.91,68.11-30.25-13.82-8.9-198,67.07-240.19h0c26.04,44.07,11.68,153.08,11.68,153.08Z" style="fill:#8a284c;"/></g><path d="M1658.48,1878.44c-25.75,34.35-88.98,13.27-86.89,59.73,96.16-.6,136.12,0,136.12,0-.13-10.67-2.03-36-4.25-45.91l-44.99-13.82Z"/><path d="M1802.35,1879.33c-25.75,34.35-88.98,13.27-86.89,59.73,96.16-.6,136.13,0,136.13,0-.13-10.67-2.03-35.99-4.25-45.91l-44.99-13.82Z"/><path d="M1613.96,1354.08s-15.61,220.13-9.27,269.07c6.34,48.94,28.8,111.68,26.26,273.56,31.35,7.59,76.76,0,76.76,0,0,0,6.73-183.04-26.4-264.8,13.47-79.41,56.71-261.31,56.71-261.31l-124.06-16.53Z" style="fill:#201d40;"/><path d="M1673.3,1360.1s31.53,247.14,46.96,294.01c15.43,46.88,45.53,86.51,73.47,245.98,32.21,1.56,70.6-6.37,70.6-6.37,0,0-12.74-195.91-62.91-241.91-1.7-80.53,8.11-290.12,8.11-290.12l-136.23-1.59Z" style="fill:#2c2858;"/><path d="M1801.7,955.78c-17.09,42.7-58.13,66.43-91.66,53.01-33.54-13.42-46.87-58.92-29.78-101.61,17.09-42.7,58.13-66.44,91.66-53.02,33.54,13.42,46.87,58.92,29.78,101.62Z" style="fill:#f37a50;"/><path d="M1694.83,921.19c-1.98,2.85-5.9,3.55-8.74,1.57-2.85-1.98-3.55-5.9-1.57-8.75,1.98-2.85,5.9-3.55,8.74-1.57,2.85,1.98,3.55,5.9,1.57,8.74Z"/><path d="M1741.88,940.4c-2.14,3.08-6.38,3.84-9.47,1.7s-3.84-6.38-1.7-9.47c2.14-3.08,6.38-3.84,9.47-1.7,3.08,2.14,3.84,6.38,1.7,9.47Z"/><path d="M1704.37,931.22c-8.49,6.7-19.11,14.77-19.11,14.77,0,0-.11,10.24,11.86,14.68-4.33-3.93-8.13-9.15-3.62-15.19,4.5-6.03,10.88-14.27,10.88-14.27Z" style="fill:#de623c;"/><path d="M1754.26,936.3c-1.42,0-2.7-.97-3.05-2.41-.08-.33-2.19-8.5-9.19-8.54-1.73,0-3.13-1.42-3.12-3.15,0-1.73,1.43-3.13,3.15-3.12,9.56.05,14.16,8.75,15.26,13.35.4,1.68-.64,3.37-2.32,3.78-.25.06-.49.09-.73.09Z"/><path d="M1701.41,907.9c-.89,0-1.76-.46-2.25-1.28-.05-.08-1.74-2.78-4.54-3.28-1.97-.35-4.21.46-6.63,2.4-1.13.9-2.77.72-3.67-.41-.9-1.13-.72-2.77.41-3.67,3.68-2.94,7.34-4.1,10.89-3.45,5.19.96,7.94,5.56,8.05,5.75.73,1.25.31,2.84-.93,3.57-.42.24-.87.36-1.32.36Z"/><path d="M1789.77,960.24c-12.36-39.73,3.27-60.84,3.27-60.84-10.61-2.13-14.73,1.54-14.73,1.54-5.79-11.88-1.31-20.4-1.31-20.4-21.93-8.55-32.85,5.65-52.63,10.44-27.09,6.55-60.56-4.25-63.69-37.33-.45-4.79,4.81-7.89,8.81-5.21,3.71,2.48,8.63,4.49,14.76,4.31,0,0-5.68-6.4-5.97-15.26-.16-4.89,5.57-7.52,9.32-4.39,5.63,4.69,16.08,9.12,34.71,5.63,12.4-2.32,40.79-22.18,58.47-18.31,14.46,3.17,25.93,15.47,30.86,33.08,0,0,35.53,3.68,39.1,42.79,3.5,38.42-41,67.9-41,67.9l-19.97-3.95Z"/><path d="M1784.93,953.61c-9.41,5.33-13.5,15.9-9.14,23.6,4.36,7.7,15.53,9.62,24.94,4.29,9.41-5.33,13.5-15.9,9.14-23.6-4.36-7.7-15.53-9.62-24.94-4.29Z" style="fill:#f37a50;"/><path d="M1786.45,976.72c-.29-.2-.54-.48-.72-.81-2.61-4.79-2.2-9.68,1.09-13.09,3.37-3.49,8.83-4.51,12.97-2.43,1.17.59,1.64,2.01,1.05,3.17-.58,1.17-2.01,1.64-3.17,1.05-2.27-1.14-5.55-.49-7.45,1.49-1.83,1.89-1.95,4.57-.34,7.54.62,1.15.2,2.58-.95,3.21-.81.44-1.77.36-2.48-.14Z" style="fill:#de623c;"/><path d="M1687.21,974.32c-.92-1.5.39-3.38,2.11-3.01,4.39.93,11.66,2.3,18.67,2.93,7,.62,14.4.56,18.89.42,1.76-.05,2.72,2.02,1.55,3.34-3.61,4.06-10.85,10.05-21.58,9.1-10.73-.96-16.8-8.14-19.63-12.77Z" style="fill:#fff;"/><path d="M1642.07,1030.26s1.6-4.35-136.78-3.23l-37.1,43.85c38.4,30.79,167,36.26,167,36.26l6.88-76.88Z" style="fill:#201d40;"/><polygon points="1692.36 1026.7 1736 1022.62 1778.23 1034.4 1730.65 1083.36 1692.36 1026.7" style="fill:#95a6db;"/><path d="M1707.49,1049.17c17.79,14.6,21.42,24.7,59.21,5.18l5.67-58.1-61.51-4.85-3.36,57.77Z" style="fill:#f37a50;"/><path d="M1789.44,1057.78h0l-12.94-5.12,1.73-18.27-35.88,28.81-10.13,1.61-9.68-3.39-30.18-34.74-1.55,18.29-11.41,2.29h0l-41.16,6.66-4.9,228.44-16.24,77.72c54.62,18.17,115.69,22.7,175.73,14.42l-2.02-78.02,42.65-223.26-44.03-15.46Z" style="fill:#95a6db;"/><polygon points="1724.33 1087.9 1698.55 1262.32 1712.82 1282.16 1731.44 1267.86 1737.77 1089.35 1724.33 1087.9" style="fill:#2c2858;"/><polygon points="1722.79 1067.31 1732.22 1064.82 1741.82 1069.01 1737.76 1089.69 1724.24 1088.48 1722.79 1067.31" style="fill:#2c2858;"/><path d="M1691.76,1028.16l-6.46,210.7-27.89,135.67s-44.1-4.45-71.2-30.23l34.73-102.14,11.87-213.44,58.95-.56Z" style="fill:#2c2858;"/><polygon points="1691.76 1028.16 1685.33 1236.03 1653.23 1076.72 1691.76 1028.16" style="fill:#494c7f;"/><path d="M1781.53,1041.63l-57.27,341.58s76,9.34,107.25-11.22l-16.96-112.29,20.73-190.63-53.75-27.45Z" style="fill:#2c2858;"/><polygon points="1781.53 1041.63 1748.06 1241.84 1807.99 1090.79 1781.53 1041.63" style="fill:#494c7f;"/><path d="M1403.1,840.76c3.05,10.66,3.96,22.15,17.47,27.9,0,0-2,35.37-.51,64.38,0,0,32.71-36.89,32.71-36.92-1.88-11.7-3.39-33.81-1.59-46.36.47-3.26,1.11-6.5,1.62-9.77,1.41-7.93,3.74-16.05-1.09-25.62-18.67-36.98-12.38-49.15-14.96-50.96-4.18-1.84-14,5.6-8.45,23.77,5.38,17.58,4.05,26.22,4.05,26.22,0,0-14.11-2.67-19.12,2.27-2.27,2.24-13.7,12.63-10.14,25.09Z" style="fill:#f37a50;"/><path d="M1410.69,890.6c19.06-6.35,29.1-9.21,43.93-9.21,35.05,104.45,60.03,143.81,49.62,173.79-8.69,25-36.18,23-49.62,4.27-17.73-24.71-33.43-118.59-43.93-168.85Z" style="fill:#201d40;"/><polygon points="1835.28 1069.08 1945.7 1241.84 2076.85 1315.89 2036.43 1356.14 1904.85 1298.46 1814.55 1171.05 1835.28 1069.08" style="fill:#201d40;"/><path d="M1732.22,1064.82s-16.24,16.4-31.18,20.6l-17.66-46.7,8.98-12.02,39.86,38.13Z" style="fill:#fff;"/><path d="M1732.22,1064.82s9.26,15.91,27.02,25.82l25.7-42.68-6.71-13.57-46.01,30.43Z" style="fill:#fff;"/><g id="_с"><path id="_с-2" d="M1852.41,1556.64h-964.18c-22.66,0-41.03-12.36-41.03-27.61h0c0-15.25,18.37-27.61,41.03-27.61h964.18c22.66,0,41.03,12.36,41.03,27.61h0c0,15.25-18.37,27.61-41.03,27.61Z" style="fill:#95a6db;"/><path d="M1249.6,1945.71h0c-10.33,0-16.54-11.47-10.9-20.12l254.58-390.13,21.79,14.22-254.58,390.13c-2.4,3.68-6.5,5.9-10.9,5.9Z" style="fill:#95a6db;"/><path d="M1491.05,1945.71h0c10.33,0,16.54-11.47,10.9-20.12l-254.58-390.13-21.79,14.22,254.58,390.13c2.4,3.68,6.5,5.9,10.9,5.9Z" style="fill:#95a6db;"/></g><g id="_с-3"><path id="_с-4" d="M1890.79,1939.53h0c-6.88,0-12.46-5.58-12.46-12.46v-220.83h24.93v220.83c0,6.88-5.58,12.46-12.46,12.46Z" style="fill:#768fdb;"/><path id="_с-5" d="M1978.25,1939.53h0c-6.88,0-12.46-5.58-12.46-12.46v-220.83h24.93v220.83c0,6.88-5.58,12.46-12.46,12.46Z" style="fill:#768fdb;"/><path id="_с-6" d="M2093.01,1939.53h0c-6.88,0-12.46-5.58-12.46-12.46v-220.83h24.93v220.83c0,6.88-5.58,12.46-12.46,12.46Z" style="fill:#768fdb;"/><path id="_с-7" d="M2180.46,1939.53h0c-6.88,0-12.46-5.58-12.46-12.46v-220.83h24.93v220.83c0,6.88-5.58,12.46-12.46,12.46Z" style="fill:#768fdb;"/><path id="_с-8" d="M2042.56,1378.51v262.79c0,2.99-2.42,5.41-5.41,5.41h-162.93c-16.44,0-29.76,13.33-29.76,29.76h0c0,16.44,13.33,29.76,29.76,29.76h198.11c16.44,0,29.76-13.33,29.76-29.76v-297.96c0-16.44-13.33-29.76-29.76-29.76h0c-16.44,0-29.76,13.33-29.76,29.76Z" style="fill:#95a6db;"/><rect id="_с-9" x="2072.33" y="1348.75" width="128.82" height="302.79" style="fill:#95a6db;"/><path id="_с-10" d="M2171.38,1378.51v262.79c0,2.99-2.42,5.41-5.41,5.41h-162.93c-16.44,0-29.76,13.33-29.76,29.76h0c0,16.44,13.33,29.76,29.76,29.76h198.11c16.44,0,29.76-13.33,29.76-29.76v-297.96c0-16.44-13.33-29.76-29.76-29.76h0c-16.44,0-29.76,13.33-29.76,29.76Z" style="fill:#768fdb;"/></g><g id="_с-11"><path id="_с-12" d="M837.65,1939.53h0c6.88,0,12.46-5.58,12.46-12.46v-220.83h-24.93v220.83c0,6.88,5.58,12.46,12.46,12.46Z" style="fill:#768fdb;"/><path id="_с-13" d="M750.19,1939.53h0c6.88,0,12.46-5.58,12.46-12.46v-220.83h-24.93v220.83c0,6.88,5.58,12.46,12.46,12.46Z" style="fill:#768fdb;"/><path id="_с-14" d="M635.44,1939.53h0c6.88,0,12.46-5.58,12.46-12.46v-220.83h-24.93v220.83c0,6.88,5.58,12.46,12.46,12.46Z" style="fill:#768fdb;"/><path id="_с-15" d="M547.98,1939.53h0c6.88,0,12.46-5.58,12.46-12.46v-220.83h-24.93v220.83c0,6.88,5.58,12.46,12.46,12.46Z" style="fill:#768fdb;"/><path id="_с-16" d="M685.88,1378.51v262.79c0,2.99,2.42,5.41,5.41,5.41h162.93c16.44,0,29.76,13.33,29.76,29.76h0c0,16.44-13.33,29.76-29.76,29.76h-198.11c-16.44,0-29.76-13.33-29.76-29.76v-297.96c0-16.44,13.33-29.76,29.76-29.76h0c16.44,0,29.76,13.33,29.76,29.76Z" style="fill:#95a6db;"/><rect id="_с-17" x="527.3" y="1348.75" width="128.82" height="302.79" transform="translate(1183.42 3000.29) rotate(180)" style="fill:#95a6db;"/><path id="_с-18" d="M557.06,1378.51v262.79c0,2.99,2.42,5.41,5.41,5.41h162.93c16.44,0,29.76,13.33,29.76,29.76h0c0,16.44-13.33,29.76-29.76,29.76h-198.11c-16.44,0-29.76-13.33-29.76-29.76v-297.96c0-16.44,13.33-29.76,29.76-29.76h0c16.44,0,29.76,13.33,29.76,29.76Z" style="fill:#768fdb;"/></g><path d="M1976.26,1278.09c-27.49-9.92-69.95-31.6-41.73-71.22,28.22-39.62,27.5-22.33,17.34-70.46-10.16-48.13,24.06-85.99,56.69-76.41,32.62,9.58,40.95,35.98,80.94,29.3,39.99-6.68,73.23,30.72,58.18,63.15-15.05,32.43-21.48,48.05-7.41,66,14.08,17.95,77.5,37.29,51.04,80.3-26.45,43.01-38.57,40.37-29.39,62.42,9.19,22.05-12,47.15-48.77,43.72-36.77-3.43-70.05-17.33-83.54-58.38-13.48-41.05-53.35-68.42-53.35-68.42Z" style="fill:#2c2858;"/><path d="M1879.01,1903.25l-21.72,6.49-16.36-16.72c.78-1.16.03-12.36-2.5-24.3l40.58-6.73c1.62,12.37,0,28.78,0,41.27Z" style="fill:#f37a50;"/><path d="M1857.45,1905.83c-5.17-13.56-16.21-15.07-16.21-15.07-21.46,28.62-74.16,11.06-72.41,49.77,80.14-.5,113.45,0,113.45,0-.11-8.89-1.69-30-3.54-38.26l-4.18.74-17.11,2.81Z" style="fill:#e62552;"/><path d="M1734.54,1907.29l-22.62,1.55-13.01-13.85c1.02-.96,3.48-18.11,3.64-30.31l38.12,1.7c-1.14,12.42-3.39,28.74-6.14,40.92Z" style="fill:#f37a50;"/><path d="M1714.38,1905.83c-5.16-13.56-16.2-15.07-16.2-15.07-21.46,28.62-74.16,11.06-72.41,49.77,80.14-.5,113.45,0,113.45,0-.11-8.89-1.69-30-3.54-38.26l-4.18.74-17.11,2.81Z" style="fill:#e62552;"/><path d="M1963.26,1529.09c-61.74,8.31-235.68,72.77-245.37,84.43-20.02,24.09-9.47,155.15-18.98,263.3l50.55,2.99c24.22-88.07,22.29-126.09,33.24-227.11,0,0,198.71,14.88,270.52-33.58,74.03-49.97-40.03-101.87-89.96-90.03Z" style="fill:#0e6a41;"/><path d="M1882.8,1400.69c14.59,2.49,20.21,14.2,23.73,35.76-55.59,32.75-138.17,35.08-138.17,35.08l-26.32-13.02s66.22-23.85,140.76-57.82Z" style="fill:#de623c;"/><path d="M2034.8,1339.07c-24.33,35.35-117.52,111.37-132.95,113.77l-18.69-52.31s90.99-98.48,107.56-115.89c28.61-30.21,83.91-3.21,44.08,54.43Z" style="fill:#de623c;"/><path d="M1932.31,1333.41c19.51-21.02,44.92-68.46,77.98-65.09,33.06,3.37,35.45,38.46,25.48,57.35-9.97,18.89-44.38,65.45-44.38,65.45l-59.09-57.71Z" style="fill:#ff4f78;"/><path d="M1938.3,1422.34c14.01,4.83,22.01,48.97,18.08,52.35-60.08,23.8-185.08-1.94-185.08-1.94l-6.64-22.64s94.65-5.79,173.64-27.77Z" style="fill:#f37a50;"/><path d="M2135.98,1566.2c-13.74-70.88-19.66-96-25.37-129.36-14.1-82.44,27.36-140.39-43.73-179.9l-51.82,8.35c-41.9,44.08-67.69,84.09-69.9,111.73-3.04,35.65,32.34,55,32.34,55l-14.23,97.07s-3.35,7.93,55.08,18.96c58.43,11.04,117.63,18.15,117.63,18.15Z" style="fill:#e62552;"/><path d="M2093.39,1349.12c-24.33,35.76-128.28,126.64-143.9,127.44l-11.18-54.23s94.43-110.67,111-128.28c28.61-30.55,83.91-3.25,44.08,55.06Z" style="fill:#f37a50;"/><path d="M1994.01,1349.37c18.15-26.41,54.77-75.15,87.83-71.77,33.06,3.37,35.45,38.46,25.49,57.35-9.97,18.89-44.38,65.45-44.38,65.45l-68.94-51.03Z" style="fill:#ff4f78;"/><path d="M1764.66,1450.11c-19.11-4.7-60.67-18.66-77.4,25.1,4.2,8.03,19.58-11.8,26.19-13.63,10.49-2.92,19.49,2.6,27.43,10.18,11.38,10.88,30.42.99,30.42.99l-6.64-22.64Z" style="fill:#f37a50;"/><path d="M1749.79,1500.96h-179.53v-24.11h203.64c0,13.31-10.79,24.11-24.11,24.11Z" style="fill:#ff4f78;"/><path d="M1477.95,1349.52l92.32,151.44,21.34-11.22-103.53-172.78h0c-11.78,6.19-16.32,20.77-10.12,32.55Z" style="fill:#ff4f78;"/><path d="M2090.6,1189.4c-8.73,36.46-39.02,60.46-67.66,53.6-28.64-6.86-44.77-41.97-36.04-78.43,8.73-36.46,39.02-60.46,67.66-53.6,28.64,6.86,44.77,41.97,36.04,78.43Z" style="fill:#f37a50;"/><path d="M2076.73,1208.61l-47.59,29.5s-4.22,21.03-6.33,27.86c-4.35,14.08,12.31,20.23,26.4,11.47,14.09-8.77,17.67-20.49,17.67-20.49l9.84-48.33Z" style="fill:#f37a50;"/><path d="M1983.62,1150.65c13.52,1.16,42.82-1.18,53.51-13.85,7.62,25.72,40,50.21,66.78,61.69,1.07-26.39.88-74.95-46.44-95.12-37.17-15.85-73.85,47.28-73.85,47.28Z" style="fill:#2c2858;"/><path d="M2000.32,1174.15c-1.26,2.53-4.33,3.56-6.87,2.3-2.53-1.26-3.56-4.34-2.3-6.87,1.26-2.53,4.33-3.56,6.87-2.3,2.53,1.26,3.56,4.34,2.3,6.87Z"/><path d="M2040.54,1184.07c-1.37,2.74-4.69,3.85-7.43,2.49-2.74-1.37-3.86-4.69-2.49-7.43,1.37-2.74,4.69-3.86,7.43-2.49,2.74,1.37,3.86,4.69,2.49,7.43Z"/><path d="M2046.67,1179.48c-.38-.19-.7-.5-.89-.92-2.78-5.99-10.28-7.16-10.36-7.17-1.05-.15-1.78-1.13-1.63-2.18.15-1.05,1.12-1.78,2.18-1.63.39.05,9.64,1.45,13.31,9.37.45.97.03,2.11-.94,2.56-.55.26-1.17.23-1.67-.02Z" style="fill:#2c2858;"/><path d="M1989.15,1166.73c-.19-.09-.36-.22-.51-.37-.75-.76-.74-1.98.02-2.72,5.88-5.81,13.13-3.4,13.43-3.29,1,.35,1.54,1.44,1.19,2.45-.35,1-1.44,1.54-2.44,1.2-.24-.08-5.34-1.7-9.48,2.39-.6.59-1.5.71-2.21.35Z" style="fill:#2c2858;"/><path d="M2003.61,1185.29c-2.81,2.89-5.27,5.87-7.96,7.56-.9.57-1.19,1.77-.67,2.7,2.17,3.84,8.49,7.01,12.37,8.65.57.24,1.03-.5.57-.91-3.92-3.43-5.6-5.96-6.3-7.35-.35-.69-.34-1.5,0-2.19.8-1.59,2.4-4.82,3.48-7.5.37-.92-.81-1.68-1.5-.97Z" style="fill:#de623c;"/><path d="M2076.82,1189.64c-6.96,5.41-9.01,14.42-4.58,20.11,4.43,5.69,13.66,5.92,20.62.51,6.96-5.41,9.01-14.42,4.58-20.11-4.43-5.69-13.66-5.92-20.62-.51Z" style="fill:#f37a50;"/><path d="M2080.78,1208.1c-.26-.13-.49-.32-.68-.57-2.67-3.55-2.92-7.55-.67-10.68,2.3-3.21,6.59-4.68,10.18-3.49,1.01.34,1.56,1.42,1.23,2.44-.33,1.01-1.42,1.56-2.44,1.23-1.97-.65-4.53.26-5.83,2.08-1.25,1.75-1.03,3.92.62,6.12.64.85.47,2.06-.38,2.7-.6.45-1.39.5-2.02.18Z" style="fill:#de623c;"/><path d="M2032.35,1540.35c-61.74,8.31-235.94,64.77-245.63,76.43-20.02,24.09,24.55,127.24,38.81,260.04h59.6c-.62-94.62,6.93-181.66-22.18-212.51,0,0,166.97-11.14,250.2-11.14,42.43,0,65.91-143.38-80.8-112.81Z" style="fill:#3f964f;"/><path d="M2001.01,1215.97c-.82-1.11.07-2.66,1.44-2.5,3.49.42,9.27.99,14.78,1,5.51,0,11.29-.56,14.78-.97,1.38-.16,2.26,1.39,1.44,2.5-2.54,3.42-7.78,8.6-16.23,8.59-8.45,0-13.68-5.2-16.21-8.62Z" style="fill:#fff;"/><path d="M815.37,1438.39c-11.79,7.85-8.53,50.6-4.07,52.78,61.31,7.49,164.86-43.3,164.86-43.3l4.06-22.72s-86.49,14.49-164.84,13.25Z" style="fill:#f37a50;"/><path d="M680.66,1364.26c21.92,35.05,117.85,125.68,132.74,127.02l12.68-51.38s-86.11-109.17-101.29-126.6c-26.2-30.24-80.02-6.19-44.13,50.96Z" style="fill:#f37a50;"/><path d="M733.09,1176.98c2.64-35.88-7.74-67.59-36.35-83.73-29-16.36-65.33-.31-65.33-.31h0s-30.75-10.94-58.62,19.76c-27.87,30.7-6.79,57.71-18.19,80.1-6.75,13.26-41.08,15.99-32.21,59.18,2.56,12.46,17.54,20.84,30.23,21.67,22.29,1.46,43.05-7.15,52.09,1.46,29.78,28.4,95.77,18.13,105-7.85,2.86-8.05,62.22,7.53,56.3-47.33-3-27.8-35.26-10.89-32.91-42.96Z" style="fill:#2c2858;"/><polygon points="678.7 1292.98 631.57 1284.28 613.9 1307.79 651.45 1384.79 706.7 1337.91 678.7 1292.98" style="fill:#f37a50;"/><path d="M739.79,1478.64c-.81-14.65,22.87-74.82,10.41-105.1-9.08-24.36-24.24-65.26-42.81-72.08-8.76-3.22-17.77-5.46-28.69-8.48,0,0,6.16,30.7-6.67,31.73-24.71,1.98-40.45-40.43-40.45-40.43-13.32-1.27-74.42,18.8-74.39,23.82.14,39.3,32.07,96.63,42.51,139.12,4.11,45.89-11.9,100.8-11.96,106.02,0,0,98.29,27.63,156.55-4.45,1.22-4.47-3.39-49.92-4.5-70.15Z" style="fill:#3f964f;"/><path d="M602.52,1506.09s-21.7,54.74-26.99,89.2c-5.29,34.46,24.57,56.57,24.57,56.57h248.34s26.59-43.12,18.93-72.89c-7.66-29.77-25.27-34.51-25.27-34.51l-239.58-38.38Z" style="fill:#3f964f;"/><path d="M851.76,1542.94c-31.71-4.47-123.72,31.27-162.96,108.92h109.77l53.19-108.92Z" style="fill:#de623c;"/><path d="M816.99,1571.52c4.1-4.48,7.82-10.01,11.09-15.78,9.25-16.3,31.56-19.06,44.15-5.17,45.77,50.46,143.34,165.49,165.09,179.81,6.14,4.04,42.01,24.69,76.1,20.61,0,0,16.83,6.41,5.62,19.77-5.77,6.88-92.4,13.98-92.4,13.98l-6.75-25.44c-50.43-37.32-113.21-34.64-166.44-102.88-29.31-37.58-36.45-84.9-36.45-84.9Z" style="fill:#de623c;"/><path d="M1044.18,1799.41l34.86,22.63,4.79-5.71-28.28-26.37c16.06-12.67,53.27-2.1,53.27-2.1,12.19-7.87,35.94-33.4,38.39-47.08-7.8-9.72-33.79,10.28-33.79,10.28.95,4.33-7.26,19.34-13.79,21.9-28.39,6.12-56.68-1.94-79.76-13.66,0,0-19.29,29.23,24.3,40.11Z" style="fill:#e62552;"/><path d="M816.48,1578.38c-6.35,1.71-11.08,7.03-12,13.54-2.48,17.61-15.31,53.28,2.04,90.63,42.59,91.7,67.73,152.11,72.2,175.78-11.12,20.83,33.23,77.75,33.9,81.47l31.93-9.99s-18.32-27.25-24.92-37.92c-15.71-25.41-18.28-56.59-20.83-80.76-10.9-103.19,7.84-168.34-66.82-228.87-4.41-3.58-10.01-5.35-15.5-3.88Z" style="fill:#f37a50;"/><path d="M862.82,1901.97l3.15,41.44,7.45.35,3.82-38.48c19.82,5.09,33.97,41.09,33.97,41.09,13.65,4.92,48.35,8.33,60.72,1.98,3-12.1-28.66-20.64-28.66-20.64-2.87,3.39-19.78,5.96-25.78,2.32-22.08-18.86-34.08-46.24-38.76-71.71,0,0-33.68,2.39-15.91,43.65Z" style="fill:#e62552;"/><path d="M666.79,1254.49l-38.27-5.73,3.05,35.52s7.32,16.09,15.82,17.18l31.31-8.48-11.91-38.49Z" style="fill:#f37a50;"/><path d="M593.11,1203.13c9.88,41.26,44.16,68.41,76.56,60.66,32.4-7.76,50.66-47.5,40.79-88.75s-44.16-68.42-76.56-60.66c-32.4,7.76-50.66,47.5-40.79,88.75Z" style="fill:#f37a50;"/><path d="M695.27,1185.87c1.43,2.87,4.91,4.03,7.77,2.6,2.86-1.43,4.03-4.91,2.6-7.77-1.43-2.87-4.91-4.03-7.77-2.6-2.86,1.43-4.03,4.91-2.6,7.77Z"/><path d="M649.76,1197.1c1.54,3.1,5.31,4.36,8.41,2.82,3.1-1.55,4.36-5.31,2.82-8.41-1.55-3.1-5.31-4.36-8.41-2.82-3.1,1.54-4.36,5.31-2.82,8.41Z"/><path d="M642.82,1191.9c.43-.21.79-.57,1.01-1.04,3.14-6.78,11.64-8.1,11.72-8.12,1.19-.18,2.02-1.28,1.84-2.47-.17-1.19-1.27-2.02-2.46-1.85-.44.06-10.91,1.64-15.06,10.6-.51,1.09-.03,2.39,1.06,2.9.63.29,1.32.26,1.89-.03Z" style="fill:#2c2858;"/><path d="M707.91,1177.47c.21-.1.41-.24.58-.42.85-.86.84-2.24-.02-3.09-6.65-6.57-14.86-3.85-15.2-3.73-1.14.39-1.74,1.63-1.35,2.77.39,1.13,1.63,1.74,2.76,1.35.27-.09,6.04-1.92,10.72,2.7.68.67,1.69.81,2.51.4Z" style="fill:#2c2858;"/><path d="M691.55,1198.47c3.18,3.27,5.97,6.64,9,8.55,1.02.65,1.35,2.01.76,3.06-2.45,4.35-9.61,7.93-14,9.79-.64.27-1.17-.57-.64-1.03,4.43-3.89,6.33-6.75,7.13-8.32.4-.78.39-1.7,0-2.48-.91-1.79-2.72-5.45-3.94-8.49-.42-1.04.91-1.91,1.7-1.1Z" style="fill:#de623c;"/><path d="M608.71,1203.39c7.87,6.13,10.19,16.32,5.18,22.76-5.01,6.44-15.46,6.7-23.33.57-7.87-6.12-10.19-16.32-5.18-22.76,5.01-6.44,15.46-6.7,23.33-.58Z" style="fill:#f37a50;"/><path d="M604.22,1224.28c.29-.15.56-.36.77-.64,3.02-4.02,3.31-8.54.76-12.09-2.61-3.63-7.45-5.29-11.52-3.95-1.14.38-1.76,1.61-1.39,2.76.38,1.14,1.61,1.77,2.76,1.39,2.23-.73,5.13.3,6.6,2.35,1.42,1.98,1.17,4.43-.7,6.92-.72.96-.53,2.33.43,3.05.68.51,1.57.56,2.28.21Z" style="fill:#de623c;"/><path d="M655.73,1231.37c-.91-1.23.07-2.95,1.6-2.77,3.87.46,10.27,1.09,16.38,1.09s12.51-.63,16.38-1.09c1.52-.18,2.51,1.54,1.6,2.77-2.81,3.79-8.61,9.54-17.97,9.54s-15.16-5.75-17.97-9.54Z" style="fill:#fff;"/><path d="M592.31,1199.48c38.68-5.18,92.8-44.59,97.23-64.81-7.48-24.29-47.34-36.5-69.85-25.25-22.51,11.25-43.77,59.49-27.39,90.06Z" style="fill:#2c2858;"/><path d="M954.14,1491.96h0c-5.15-1.68-7.96-7.22-6.28-12.36l59.7-182.89c1.68-5.15,7.22-7.96,12.36-6.28h0c5.15,1.68,7.96,7.22,6.28,12.37l-59.7,182.89c-1.68,5.15-7.22,7.96-12.36,6.28Z" style="fill:#fff;"/><path d="M985.86,1426.42l12.16-37.26s10.54,21.44,0,41.78c-10.54,20.35-20.58,21.26-20.58,21.26l8.41-25.78Z" style="fill:#f37a50;"/><path d="M968.48,1416.45c-3.08-7.23-10.32-25.33-3.08-25.25,7.24.08,8.42,8.87,8.42,8.87l-5.35,16.38Z" style="fill:#f37a50;"/><path d="M370.41,1307.54c16.42-16.56,5.65-33.55,5.65-33.55,9.01-1.93,56.54,70.07,77.04,115.83,35.75-36.03,98.74-84.69,115.78-87.53,0,0,22.98-6.18,31.24,21.61,7.37,24.8-21.37,42.37-21.37,42.37,0,0-122.96,86.81-141.14,79.09-28.3-12.01-53.91-115.33-67.19-137.82Z" style="fill:#f37a50;"/><path d="M344.74,1305.49c10.03.61,22.44-4.35,26.31,4.65l19.8-9.65,1.2-11.94c-17.02-27.26-58.49-35-62.6-35.36-10.67-.94-15.62-2.04-16.46-.61-.83,1.43-3.45,10.92,12.03,12.78,19.43,2.33,6.53,17.87-32.88,3.08-9.87-3.7-28.44,1.1-21.72,8.32,7.4,7.95,28.67,25.96,74.32,28.74Z" style="fill:#f37a50;"/><path d="M1417.52,750.3c0,9.04-1.55,17.79-4.45,26.1-14.54,41.74-63.07,72.4-120.72,72.4s-106.17-30.66-120.71-72.4c-2.91-8.31-4.45-17.06-4.45-26.1h250.33Z" style="fill:#3f964f;"/><path d="M1417.52,750.3c0,9.04-1.55,17.79-4.45,26.1h-241.42c-2.91-8.31-4.45-17.06-4.45-26.1h250.33Z" style="fill:#0e6a41;"/><path d="M1554.47,328.05c0-144.64-117.15-261.91-261.74-262.12-142.61-.2-259.89,114.72-262.45,257.31-1.12,62.36,19.55,119.86,54.9,165.39,44.73,57.61,69.55,128.17,69.55,201.11v1.29h275.23v-1.29c0-73.04,25.01-143.61,69.74-201.35,34.33-44.32,54.76-99.94,54.76-160.34Z" style="fill:#ffe91d;"/><path d="M1332.01,661.37c-.73,0-1.47-.12-2.2-.37-3.5-1.22-5.34-5.04-4.12-8.53.31-.89,31.21-89.94,53.67-180.62,39.81-160.73,19.33-186.86,8.67-190.63-31.33-11.09-56.27,5.32-71.68,21.03-4.53,4.62-8.87,9.83-12.96,15.51,6.69,11.57,12.72,24.36,17.78,37.87,13.88,37.08,17.57,71.72,9.87,92.65-5.94,16.15-18.57,24.34-35.56,23.06-16.03-1.21-27.76-10.49-33.91-26.84-7.06-18.75-6.15-46.33,2.5-75.65,5.46-18.52,13.64-36.33,23.53-51.68-9.24-14.62-19.94-27.21-31.56-35.67-17.25-12.57-33.45-13.12-48.15-1.63-30.35,23.73-31.52,95.09-3.36,206.38,21.71,85.8,53.56,165.12,53.88,165.91,1.38,3.43-.28,7.34-3.71,8.72-3.43,1.39-7.34-.27-8.72-3.71-.32-.8-32.48-80.85-54.41-167.52-30.01-118.57-27.3-192.7,8.07-220.35,19.43-15.19,42.26-14.7,64.3,1.36,11.04,8.05,21.96,20.12,31.85,34.88,3.52-4.56,7.19-8.81,10.99-12.68,25.64-26.15,56.09-34.78,85.73-24.28,18.45,6.53,26.02,31.37,23.14,75.93-2.12,32.86-9.96,76.81-23.29,130.63-22.61,91.27-53.7,180.84-54.01,181.73-.96,2.77-3.56,4.5-6.33,4.5ZM1295.23,330.29c-7.58,12.87-13.88,27.34-18.31,42.34-7.73,26.19-8.78,51.29-2.81,67.14,4.31,11.43,11.62,17.39,22.38,18.2,11.09.84,18.07-3.72,21.98-14.32,8.88-24.14-1.9-73.44-23.23-113.35Z" style="fill:#fff;"/><path d="M1177.95,658.02h228.81c27.26,0,49.39,22.13,49.39,49.39v2.07c0,27.26-22.13,49.39-49.39,49.39h-228.8c-27.26,0-49.39-22.13-49.39-49.39v-2.07c0-27.26,22.13-49.39,49.39-49.39Z" style="fill:#3f964f;"/><path d="M1737.65,338.83h-85.7c-12.2,0-22.09-9.89-22.09-22.09h0c0-12.2,9.89-22.09,22.09-22.09h85.7c12.2,0,22.09,9.89,22.09,22.09h0c0,12.2-9.89,22.09-22.09,22.09Z" style="fill:#ffe91d;"/><path d="M932.76,338.83h-85.7c-12.2,0-22.09-9.89-22.09-22.09h0c0-12.2,9.89-22.09,22.09-22.09h85.7c12.2,0,22.09,9.89,22.09,22.09h0c0,12.2-9.89,22.09-22.09,22.09Z" style="fill:#ffe91d;"/><path d="M987.23,157.5l-68.2-51.9c-9.71-7.39-11.59-21.24-4.2-30.95h0c7.39-9.71,21.25-11.59,30.95-4.2l68.2,51.9c9.71,7.39,11.59,21.25,4.2,30.95h0c-7.39,9.71-21.24,11.59-30.95,4.2Z" style="fill:#ffe91d;"/><path d="M1593.12,157.5l68.2-51.9c9.71-7.39,11.59-21.24,4.2-30.95h0c-7.39-9.71-21.24-11.59-30.95-4.2l-68.2,51.9c-9.71,7.39-11.59,21.25-4.2,30.95h0c7.39,9.71,21.24,11.59,30.95,4.2Z" style="fill:#ffe91d;"/><path d="M987.23,503.37l-68.2,51.9c-9.71,7.39-11.59,21.25-4.2,30.95h0c7.39,9.71,21.25,11.59,30.95,4.2l68.2-51.9c9.71-7.39,11.59-21.24,4.2-30.95h0c-7.39-9.71-21.24-11.59-30.95-4.2Z" style="fill:#ffe91d;"/><path d="M1593.12,503.37l68.2,51.9c9.71,7.39,11.59,21.25,4.2,30.95h0c-7.39,9.71-21.24,11.59-30.95,4.2l-68.2-51.9c-9.71-7.39-11.59-21.24-4.2-30.95h0c7.39-9.71,21.24-11.59,30.95-4.2Z" style="fill:#ffe91d;"/><path id="Vector_25" d="M1349.2,1408.54s-19.71-37.19-27.59-76.63c-6.85-33.7-6.53-73.95-5.69-95.45.19-4.89,6.61-6.56,9.17-2.38,12.4,20.28,34.83,61.04,39.87,97.86,3.61,25.41,5.93,50.98,6.96,76.63l-22.72-.03Z" style="fill:#3f964f;"/><path id="Vector_26" d="M1369.82,1408.54s13.14-45.46,27.59-75.79c10.51-22.05,34.42-48.45,46.7-61.22,2.32-2.42,6.37-.34,5.75,2.96-3.15,16.81-10.44,49.95-22.35,72.58-16.56,31.46-44.13,61.47-44.13,61.47h-13.56Z" style="fill:#3f964f;"/><path id="Vector_27" d="M1302.24,1368.21c-1.88-3.68,1.64-7.78,5.56-6.46,9.94,3.35,19.14,8.67,27.04,15.67,14.7,13.36,17.44,28.58,17.44,28.58l-5.06,1.7s-27.39-4.99-44.98-39.5Z" style="fill:#0e6a41;"/><path id="Vector_28" d="M1405.1,1261.91c-.34-4.7-6.37-6.41-9.13-2.58-10.26,14.28-27.49,42.42-33.12,76.91-7.06,43.04,1.16,72.33,1.16,72.33h5.81s21.39-40.53,29.73-67.99c7.87-25.92,6.86-60.34,5.55-78.66Z" style="fill:#0e6a41;"/><path id="Vector_29" d="M1383.38,1408.54s12.3-40.98,54.4-56.59c2.45-.91,4.81,1.56,3.82,3.97-5.55,13.54-21.37,45.88-48.09,52.6l-10.14.02Z" style="fill:#0e6a41;"/><path id="Vector_23" d="M1420.64,1401.61h-97.44l12.51,99.83h72.43l12.51-99.83Z" style="fill:#768fdb;"/><path d="M1315.87,1479.67v14.33h3.9c1.89,0,3.43,1.54,3.43,3.43v.58c0,1.89-1.53,3.43-3.43,3.43h-166.27c-2.2,0-3.99-1.78-3.99-3.99v-20.64c0-2.2,1.79-3.99,3.99-3.99h166.27c1.89,0,3.43,1.54,3.43,3.43h0c0,1.89-1.53,3.43-3.43,3.43h-3.9Z" style="fill:#e62552;"/><path d="M1170.95,1479.68h145.42v14.33h-145.42c-1.61,0-2.91-1.31-2.91-2.91v-8.5c0-1.61,1.31-2.91,2.91-2.91Z" style="fill:#fff;"/><path d="M1134.82,1448.74v15.86h-3.9c-1.89,0-3.43,1.7-3.43,3.79v.64c0,2.1,1.53,3.79,3.43,3.79h166.27c2.2,0,3.99-1.97,3.99-4.41v-22.84c0-2.44-1.79-4.41-3.99-4.41h-166.27c-1.89,0-3.43,1.7-3.43,3.79h0c0,2.09,1.53,3.79,3.43,3.79h3.9Z" style="fill:#3f964f;"/><path d="M1137.39,1448.74h145.27v15.85h-145.27c-1.69,0-3.06-1.37-3.06-3.06v-9.73c0-1.69,1.37-3.06,3.06-3.06Z" transform="translate(2416.98 2913.33) rotate(180)" style="fill:#fff;"/><rect x="1141.04" y="1400.75" width="163.74" height="25.71" rx="6.06" ry="6.06" style="fill:#e62552;"/><path d="M1156.32,1426.46h154.57c2.53,0,4.58,2.05,4.58,4.58v5.52c0,2.53-2.05,4.58-4.58,4.58h-154.57c-2.53,0-4.58-2.05-4.58-4.58v-5.52c0-2.53,2.05-4.58,4.58-4.58Z" style="fill:#768fdb;"/></svg>