<?xml version="1.0" encoding="UTF-8"?>
<svg id="_Слой_1" xmlns="http://www.w3.org/2000/svg" version="1.1" viewBox="0 0 2670 2000">
  <!-- Generator: Adobe Illustrator 29.1.0, SVG Export Plug-In . SVG Version: 2.1.0 Build 142)  -->
  <defs>
    <style>
      .st0 {
        fill: #3f964f;
      }

      .st1 {
        fill: #ffe91d;
      }

      .st2 {
        fill: #fff;
      }

      .st3 {
        fill: #f37a50;
      }

      .st4 {
        fill: #e62552;
      }

      .st5 {
        fill: #0e6a41;
      }

      .st6 {
        fill: #ff4f78;
      }

      .st7 {
        fill: #201d40;
      }

      .st8 {
        fill: #c4204a;
      }

      .st9 {
        fill: #8a284c;
      }

      .st10 {
        fill: #494c7f;
      }

      .st11 {
        fill: #e3eaff;
      }

      .st12 {
        fill: #95a6db;
      }

      .st13 {
        fill: #768fdb;
      }

      .st14 {
        fill: #2c2858;
      }

      .st15 {
        fill: #de623c;
      }
    </style>
  </defs>
  <path class="st11" d="M405,1941.1c-181.6-197.7-429.8-401.9-332.4-710.2,64-202.8,221-259.4,351.4-384.5,64.4-61.7,23.9-151.6,22.7-240.8-2.7-228.4,252.1-405.6,486.4-401.9,253.8,4,363.7,259.1,576.5,272.8,83.6,1.3,158.4-47.8,232.4-86.8,219.2-115.5,566.9-41.8,584.5,237.4,4.5,150.8-167.1,393.5,4.9,472.8,137.1,63.2,275.5,86.5,300.2,312.6,32.3,295.9-138.6,458.4-361.3,534.5l-1865.3-6.1h0Z"/>
  <path class="st2" d="M523.7,815.7h252.7c31.3,0,56.6,25.4,56.6,56.6v117.8c0,31.3-25.3,56.6-56.6,56.6h-1.9l20.3,67.9c.9,3-2.6,5.4-5,3.5l-93.6-71.4h-172.4c-31.3,0-56.6-25.3-56.6-56.6v-117.8c0-31.3,25.4-56.6,56.6-56.6h0Z"/>
  <path class="st11" d="M776.3,914.6h-242.6c-15.5,0-28-12.5-28-28h0c0-15.5,12.6-28,28-28h242.6c15.5,0,28,12.5,28,28h0c0,15.5-12.5,28-28,28h0Z"/>
  <path class="st11" d="M776.3,1000.2h-242.6c-15.5,0-28-12.5-28-28h0c0-15.5,12.6-28,28-28h242.6c15.5,0,28,12.5,28,28h0c0,15.5-12.5,28-28,28h0Z"/>
  <path class="st2" d="M2070.1,497.7h-275.6c-34.1,0-61.8,27.7-61.8,61.8v128.5c0,34.1,27.7,61.8,61.8,61.8h2l-22.1,74.1c-1,3.3,2.8,5.9,5.5,3.8l102.1-77.9h188c34.1,0,61.8-27.7,61.8-61.8v-128.5c0-34.1-27.6-61.8-61.8-61.8h0Z"/>
  <path class="st11" d="M1790.3,550.2h277.5c13.8,0,24.9,11.2,24.9,24.9v6.2c0,13.8-11.2,24.9-24.9,24.9h-277.4c-13.8,0-24.9-11.2-24.9-24.9v-6.2c0-13.8,11.2-24.9,24.9-24.9h0Z"/>
  <path class="st11" d="M1802.4,635h129.9c15.5,0,28,12.6,28,28h0c0,15.5-12.6,28-28,28h-129.9c-15.5,0-28-12.6-28-28h0c0-15.5,12.6-28,28-28Z"/>
  <path class="st2" d="M231.2,1449.5c10.4-7.9,23-11.8,37.6-11.8,31.6,0,48.3,17.2,48.3,41.3s-6.7,28.1-20.4,42.2c-17.4,18.3-29.9,27.4-37.8,27.4s-13.2-6-13.2-13.2,6-13,16.5-22.5c.7-.7,1.4-1.4,1.9-1.6,11.8-10.9,15.5-16.9,15.5-24.4s-6.3-14.4-15.3-14.4-9.1.9-14.9,2.8c-5.8,1.9-10,2.8-12.5,2.8-6.5,0-13.9-5.6-13.9-14.9s2.8-9.5,8.4-13.7h0ZM263,1604.3c-14.2,0-23.7-10.7-23.7-23.7s9.5-21.8,23.7-21.8,21.8,10.7,21.8,21.8-9,23.7-21.8,23.7Z"/>
  <path class="st2" d="M2127.5,928.6c6.9-5.2,15.1-7.8,24.7-7.8,20.8,0,31.8,11.3,31.8,27.2s-4.4,18.5-13.4,27.8c-11.4,12.1-19.7,18-24.9,18s-8.7-4-8.7-8.7,4-8.5,10.8-14.8c.5-.5.9-.9,1.2-1.1,7.8-7.2,10.2-11.1,10.2-16s-4.1-9.5-10.1-9.5-5.9.6-9.8,1.8-6.6,1.8-8.2,1.8c-4.3,0-9.2-3.7-9.2-9.8s1.8-6.3,5.5-9h0ZM2148.4,1030.4c-9.3,0-15.6-7-15.6-15.6s6.3-14.3,15.6-14.3,14.4,7,14.4,14.3-5.9,15.6-14.4,15.6Z"/>
  <path class="st2" d="M2584.1,1492.8h-289.8c-5.1,0-9.3-4.2-9.3-9.3v-249.5c0-5.1,4.1-9.3,9.3-9.3s9.3,4.2,9.3,9.3v240.2h280.6c5.1,0,9.3,4.2,9.3,9.3s-4.1,9.3-9.3,9.3h0Z"/>
  <path class="st2" d="M2316.2,1431.8c-2.3,0-4.6-.9-6.4-2.6-3.7-3.6-3.8-9.4-.2-13.1l93.7-96.9c3.1-3.2,8-3.8,11.7-1.3l44.3,28.7,46.7-54.3c3.3-3.9,9.2-4.3,13.1-1,3.9,3.3,4.3,9.2,1,13.1l-52,60.4c-3,3.5-8.2,4.3-12.1,1.7l-44.7-29-88.4,91.4c-1.8,1.9-4.2,2.8-6.7,2.8h0Z"/>
  <polygon class="st2" points="2520.2 1332.1 2507 1305.3 2478.6 1296.2 2541.9 1264.8 2520.2 1332.1"/>
  <path class="st2" d="M637,588.1c-31,0-56.1-25.2-56.1-56.1s25.2-56.1,56.1-56.1,56.1,25.2,56.1,56.1-25.2,56.1-56.1,56.1ZM637,491.3c-22.4,0-40.7,18.2-40.7,40.7s18.2,40.7,40.7,40.7,40.7-18.2,40.7-40.7-18.2-40.7-40.7-40.7Z"/>
  <path class="st11" d="M2349.8,1034.9c-22.7,0-41.1-18.5-41.1-41.1s18.4-41.1,41.1-41.1,41.1,18.5,41.1,41.1-18.4,41.1-41.1,41.1ZM2349.8,964c-16.4,0-29.8,13.4-29.8,29.8s13.4,29.8,29.8,29.8,29.8-13.4,29.8-29.8-13.4-29.8-29.8-29.8Z"/>
  <path class="st2" d="M191,1260.3c-20.4,0-36.9-16.6-36.9-36.9s16.6-36.9,36.9-36.9,36.9,16.6,36.9,36.9-16.6,36.9-36.9,36.9ZM191,1196.7c-14.8,0-26.8,12-26.8,26.8s12,26.8,26.8,26.8,26.8-12,26.8-26.8-12-26.8-26.8-26.8Z"/>
  <circle class="st2" cx="2150.3" cy="424.3" r="20.1" transform="translate(1386.9 2478.8) rotate(-80.8)"/>
  <path class="st11" d="M409.5,796.2c0,21.8-17.7,39.5-39.5,39.5s-39.5-17.7-39.5-39.5,17.7-39.5,39.5-39.5,39.5,17.7,39.5,39.5Z"/>
  <path class="st11" d="M2290.3,346.4c0,16.4-13.3,29.7-29.7,29.7s-29.7-13.3-29.7-29.7,13.3-29.7,29.7-29.7,29.7,13.3,29.7,29.7Z"/>
  <path class="st11" d="M2435.6,1059.4c0,14-11.4,25.3-25.3,25.3s-25.4-11.3-25.4-25.3,11.4-25.3,25.4-25.3,25.3,11.3,25.3,25.3Z"/>
  <path class="st2" d="M2216.2,500c0,17.4-14.1,31.6-31.6,31.6s-31.6-14.2-31.6-31.6,14.1-31.6,31.6-31.6,31.6,14.1,31.6,31.6Z"/>
  <path class="st2" d="M762.9,442.6c0,17.7-14.3,32-32,32s-32-14.4-32-32,14.3-32,32-32,32,14.4,32,32Z"/>
  <path class="st7" d="M2278.7,1958.4H381.4c-6.2,0-11.2-5-11.2-11.2h0c0-6.2,5-11.2,11.2-11.2h1897.3c6.2,0,11.2,5,11.2,11.2h0c0,6.2-5,11.2-11.2,11.2h0Z"/>
  <polygon id="v-2" class="st3" points="1009 977 1009.1 977 1038.2 977.1 1044.8 1045.8 1010.8 1063.8 974.5 1046 980.4 977.1 1009 977"/>
  <path class="st3" d="M929,946.6c17.9,44.8,61,69.7,96.2,55.6,35.2-14.1,49.2-61.8,31.2-106.6-17.9-44.8-61-69.7-96.2-55.6-35.2,14.1-49.2,61.8-31.2,106.6Z"/>
  <path d="M1041.1,910.3c2.1,3,6.2,3.7,9.2,1.7,3-2.1,3.7-6.2,1.7-9.2-2.1-3-6.2-3.7-9.2-1.7-3,2.1-3.7,6.2-1.7,9.2Z"/>
  <path d="M991.8,930.5c2.2,3.2,6.7,4,9.9,1.8,3.2-2.2,4-6.7,1.8-9.9-2.2-3.2-6.7-4-9.9-1.8-3.2,2.2-4,6.7-1.8,9.9Z"/>
  <path class="st15" d="M1031.1,920.8c8.9,7,20.1,15.5,20.1,15.5,0,0,.1,10.7-12.4,15.4,4.5-4.1,8.5-9.6,3.8-15.9s-11.4-15-11.4-15h0Z"/>
  <path class="st7" d="M978.8,926.2c-.2,0-.5,0-.8,0-1.8-.4-2.9-2.2-2.4-4,1.2-4.8,6-14,16-14,1.8,0,3.3,1.5,3.3,3.3s-1.5,3.3-3.3,3.3c-7.4,0-9.6,8.9-9.6,9-.4,1.5-1.7,2.5-3.2,2.5h0Z"/>
  <path class="st7" d="M1034.2,896.4c-.5,0-.9-.1-1.4-.4-1.3-.8-1.7-2.4-1-3.8.1-.2,3-5,8.4-6,3.7-.7,7.6.5,11.4,3.6,1.2,1,1.4,2.7.4,3.8s-2.7,1.4-3.8.4c-2.6-2-4.9-2.9-7-2.5-3,.5-4.7,3.4-4.7,3.4-.5.9-1.4,1.3-2.4,1.3h0Z"/>
  <path class="st7" d="M904.5,913.1c-15.2-43.2,21.8-68,21.8-68,0,0-9.9-.9-11.1-14.8,7.4,2.3,15.7,2.2,23-.5,49.2-17.8,83.1-17.6,83.1,3.5s32.5,2.4,29.8,52.8c.2-3.6-11.4-24.3-22.4-26.4-11-2.1-1.1,12.6-24,15.8-23.2,3.2-40.2-2.4-54.3,10.6-11.1,11.4-13.8,69.3-12.1,72.8-3.9-8-27.1-26.8-33.8-45.8h0Z"/>
  <path class="st7" d="M1063.2,920.8s2.1,26.3-1.7,34.4c-3.9-10.5-12.4.6-20.4,1.7-19.2,2.5-53.9-3.9-57.3,25-23.5,7.4-45.5-42.8-45.5-42.8-1.3,56.2,39.8,88,98.9,78.7,39-6.2,42.6-60.4,26-96.9h0Z"/>
  <path class="st15" d="M1022.7,974.7c-3.8-.9-7.8-2.5-11.9-4.7-1.1-.6-1.5-1.9-.9-3,.6-1.1,1.9-1.5,3-.9,9.1,4.9,17.2,6.2,24.2,4.1,8.6-2.6,12.6-9.9,12.6-10,.6-1.1,1.9-1.5,3-.9,1.1.6,1.5,1.9.9,3-.2.4-4.8,8.9-15.2,12.1-4.9,1.5-10.2,1.6-15.8.2h0Z"/>
  <path class="st3" d="M937.8,939.4c9.9,5.6,14.2,16.6,9.7,24.7-4.5,8.1-16.2,10.2-26.1,4.6-9.9-5.5-14.2-16.6-9.7-24.7,4.5-8.1,16.2-10.2,26.1-4.6Z"/>
  <path class="st15" d="M936.2,963.7c.3-.2.6-.5.8-.8,2.7-5,2.3-10.2-1.2-13.7-3.5-3.6-9.3-4.7-13.6-2.5-1.2.6-1.7,2.1-1.1,3.3.6,1.2,2.1,1.7,3.3,1.1,2.4-1.2,5.8-.5,7.8,1.5,1.9,2,2.1,4.8.4,7.9-.7,1.2-.2,2.7,1,3.4.8.5,1.9.4,2.6-.2h0Z"/>
  <path d="M1042.7,1895.5c6.2-16.8,19.4-18.7,19.4-18.7,25.8,35.5,89,13.7,86.9,61.8-96.2-.6-136.1,0-136.1,0,.1-11,2-37.2,4.2-47.5l5,.9,20.5,3.5h0Z"/>
  <path d="M898.8,1896.4c6.2-16.8,19.4-18.7,19.4-18.7,25.8,35.5,89,13.7,86.9,61.8-96.2-.6-136.1,0-136.1,0,.1-11,2-37.2,4.2-47.5l5,.9,20.5,3.5h0Z"/>
  <path class="st7" d="M1106.7,1334.4s15.6,227.7,9.3,278.3-28.8,115.5-26.3,283c-31.3,7.8-76.8,0-76.8,0,0,0-6.7-189.3,26.4-273.9-13.5-82.2-56.7-270.3-56.7-270.3l124.1-17.1h0Z"/>
  <path class="st14" d="M1047.3,1340.7s-31.5,255.6-47,304.1c-15.4,48.5-45.5,89.5-73.5,254.4-32.2,1.6-62.2,0-62.2,0,0,0,4.3-209.2,54.5-256.8,1.7-83.3-8.1-300.1-8.1-300.1l136.2-1.6h0Z"/>
  <g id="v">
    <path id="h-5" class="st4" d="M902,1050.5s54.8-19.2,73-10.4c56.7,27.3,69.8,0,69.8,0,18.1,1.6,72.9,10.4,72.9,10.4,0,61.1,4.1,122.4,3,168.7-.8,40.3,6.9,149.9,6.9,149.9,0,0-60.4,15.8-117.5,16.2-57.1-.4-115.2-15.6-115.2-15.6,0,0,3-111,5.6-152.3-.8-46.2,1.6-106,1.6-166.9h0Z"/>
  </g>
  <g id="c">
    <path id="c-2" class="st8" d="M1215,1141.4c-22.6-53.9-89.7-88.2-97.3-90.8l-15.6,69.2c32.2,19.1,55.6,39.7,55.6,39.7-4,19.3-3.3,38.2-14.5,62.6,0,0,9.7-13.4,21.7-5.5,11.6,7.7,33-8,33-8,0,0,34.4-26,17.1-67.1h0Z"/>
  </g>
  <g id="c-3">
    <g id="c-4">
      <g id="c-5">
        <path id="c-6" class="st12" d="M1202.4,1277.6c.4.1.8.2,1.2.2h1.3c2.4-.2,4.4-1.9,5.2-4.3l60.2-194.2c.1-.4.2-.8.2-1.2,0-.3,0-.5,0-.8,0-.2,0-.3,0-.5,0-.1,0-.3,0-.4-.4-2.2-1.9-4.1-4.2-4.8-.4-.1-.8-.2-1.2-.2-.4,0-.9,0-1.3,0h-151.7l-60.8,206.4h151.1v-.2c0,0,0,0,0,0Z"/>
        <path id="c-7" class="st13" d="M1113.5,1071.7c-3.2-1-6.7.8-7.7,4l-59.9,193.8v.4c-1.1,3.2.7,6.6,3.9,7.6h0c3.2,1,6.7-.8,7.7-4l60-194.2c1-3.2-.8-6.7-4-7.7h0Z"/>
      </g>
    </g>
    <path id="c-8" class="st3" d="M1228.1,1194.9c.6-.4,1.2-.6,1.8-.8,0,0-.1-.2-.2-.3-3.8-5.7-3.5-12.5.6-15.2.7-.4,1.4-.7,2.2-.9-1.1-4.2-.1-8.2,2.8-10.2,1.2-.8,2.5-1.1,3.9-1.1-1.3-4.1-.3-8.5,3-10.7,4.1-2.7,10-1,13.2,3.9s2.5,11-1.6,13.7c-1,.7-2.2,1.1-3.4,1.2,2.7,5.3,2.2,11.1-1.5,13.5-.7.4-1.4.7-2.2.9,1.1,4.2.1,8.2-2.8,10.2-1.1.7-2.3,1.1-3.6,1.1,1.3,3.6.5,7.5-2.4,9.4-3.4,2.3-8.4.8-11.2-3.3-2.7-4.1-2.1-9.3,1.3-11.6h0Z"/>
    <path class="st3" d="M1041.6,1182.7l13.8-8s3.8-19.6,26-20.1c-2.5,8.2-6.2,20.1-6.2,20.1,0,0,10.9,8.5,36.8-6,25.3-5.7,14.5,12.8,22.9,14.1,12.4,2-9,26.3-34.3,30-32.7,4.8-36.6-1.9-36.6-1.9l-18.5,6.5-3.9-34.7h0Z"/>
    <path id="c-9" class="st9" d="M913.7,1203.6c46.2-3.2,125-26.1,125-26.1,12.6,19.3,9.1,45.1,9.1,45.1-71.8,62.9-179.8,83.3-212.9,68.1-30.2-13.8-8.9-198,67.1-240.2h0c26,44.1,11.7,153.1,11.7,153.1h0Z"/>
  </g>
  <path d="M1658.5,1878.4c-25.8,34.3-89,13.3-86.9,59.7,96.2-.6,136.1,0,136.1,0-.1-10.7-2-36-4.2-45.9l-45-13.8h0Z"/>
  <path d="M1802.3,1879.3c-25.8,34.3-89,13.3-86.9,59.7,96.2-.6,136.1,0,136.1,0-.1-10.7-2-36-4.2-45.9l-45-13.8Z"/>
  <path class="st7" d="M1614,1354.1s-15.6,220.1-9.3,269.1,28.8,111.7,26.3,273.6c31.3,7.6,76.8,0,76.8,0,0,0,6.7-183-26.4-264.8,13.5-79.4,56.7-261.3,56.7-261.3l-124.1-16.5h0Z"/>
  <path class="st14" d="M1673.3,1360.1s31.5,247.1,47,294c15.4,46.9,45.5,86.5,73.5,246,32.2,1.6,70.6-6.4,70.6-6.4,0,0-12.7-195.9-62.9-241.9-1.7-80.5,8.1-290.1,8.1-290.1l-136.2-1.6h0Z"/>
  <path class="st3" d="M1801.7,955.8c-17.1,42.7-58.1,66.4-91.7,53-33.5-13.4-46.9-58.9-29.8-101.6,17.1-42.7,58.1-66.4,91.7-53,33.5,13.4,46.9,58.9,29.8,101.6Z"/>
  <path d="M1694.8,921.2c-2,2.8-5.9,3.5-8.7,1.6-2.8-2-3.6-5.9-1.6-8.8,2-2.8,5.9-3.5,8.7-1.6,2.8,2,3.6,5.9,1.6,8.7h0Z"/>
  <path d="M1741.9,940.4c-2.1,3.1-6.4,3.8-9.5,1.7s-3.8-6.4-1.7-9.5c2.1-3.1,6.4-3.8,9.5-1.7,3.1,2.1,3.8,6.4,1.7,9.5Z"/>
  <path class="st15" d="M1704.4,931.2c-8.5,6.7-19.1,14.8-19.1,14.8,0,0-.1,10.2,11.9,14.7-4.3-3.9-8.1-9.2-3.6-15.2,4.5-6,10.9-14.3,10.9-14.3h0Z"/>
  <path d="M1754.3,936.3c-1.4,0-2.7-1-3.1-2.4,0-.3-2.2-8.5-9.2-8.5-1.7,0-3.1-1.4-3.1-3.2,0-1.7,1.4-3.1,3.2-3.1,9.6,0,14.2,8.8,15.3,13.3.4,1.7-.6,3.4-2.3,3.8-.2,0-.5,0-.7,0h0Z"/>
  <path d="M1701.4,907.9c-.9,0-1.8-.5-2.2-1.3,0,0-1.7-2.8-4.5-3.3-2-.3-4.2.5-6.6,2.4-1.1.9-2.8.7-3.7-.4-.9-1.1-.7-2.8.4-3.7,3.7-2.9,7.3-4.1,10.9-3.5,5.2,1,7.9,5.6,8.1,5.8.7,1.2.3,2.8-.9,3.6-.4.2-.9.4-1.3.4h0Z"/>
  <path d="M1789.8,960.2c-12.4-39.7,3.3-60.8,3.3-60.8-10.6-2.1-14.7,1.5-14.7,1.5-5.8-11.9-1.3-20.4-1.3-20.4-21.9-8.5-32.8,5.7-52.6,10.4-27.1,6.5-60.6-4.2-63.7-37.3-.4-4.8,4.8-7.9,8.8-5.2,3.7,2.5,8.6,4.5,14.8,4.3,0,0-5.7-6.4-6-15.3-.2-4.9,5.6-7.5,9.3-4.4,5.6,4.7,16.1,9.1,34.7,5.6,12.4-2.3,40.8-22.2,58.5-18.3,14.5,3.2,25.9,15.5,30.9,33.1,0,0,35.5,3.7,39.1,42.8,3.5,38.4-41,67.9-41,67.9l-20-4h0Z"/>
  <path class="st3" d="M1784.9,953.6c-9.4,5.3-13.5,15.9-9.1,23.6,4.4,7.7,15.5,9.6,24.9,4.3,9.4-5.3,13.5-15.9,9.1-23.6-4.4-7.7-15.5-9.6-24.9-4.3Z"/>
  <path class="st15" d="M1786.4,976.7c-.3-.2-.5-.5-.7-.8-2.6-4.8-2.2-9.7,1.1-13.1,3.4-3.5,8.8-4.5,13-2.4,1.2.6,1.6,2,1.1,3.2-.6,1.2-2,1.6-3.2,1-2.3-1.1-5.6-.5-7.4,1.5-1.8,1.9-1.9,4.6-.3,7.5.6,1.2.2,2.6-.9,3.2-.8.4-1.8.4-2.5-.1h0Z"/>
  <path class="st2" d="M1687.2,974.3c-.9-1.5.4-3.4,2.1-3,4.4.9,11.7,2.3,18.7,2.9,7,.6,14.4.6,18.9.4,1.8,0,2.7,2,1.6,3.3-3.6,4.1-10.8,10-21.6,9.1-10.7-1-16.8-8.1-19.6-12.8h0Z"/>
  <path class="st7" d="M1642.1,1030.3s1.6-4.3-136.8-3.2l-37.1,43.8c38.4,30.8,167,36.3,167,36.3l6.9-76.9Z"/>
  <polygon class="st12" points="1692.4 1026.7 1736 1022.6 1778.2 1034.4 1730.7 1083.4 1692.4 1026.7"/>
  <path class="st3" d="M1707.5,1049.2c17.8,14.6,21.4,24.7,59.2,5.2l5.7-58.1-61.5-4.8-3.4,57.8h0Z"/>
  <path class="st12" d="M1789.4,1057.8h0l-12.9-5.1,1.7-18.3-35.9,28.8-10.1,1.6-9.7-3.4-30.2-34.7-1.6,18.3-11.4,2.3h0l-41.2,6.7-4.9,228.4-16.2,77.7c54.6,18.2,115.7,22.7,175.7,14.4l-2-78,42.7-223.3-44-15.5h0Z"/>
  <polygon class="st14" points="1724.3 1087.9 1698.6 1262.3 1712.8 1282.2 1731.4 1267.9 1737.8 1089.3 1724.3 1087.9"/>
  <polygon class="st14" points="1722.8 1067.3 1732.2 1064.8 1741.8 1069 1737.8 1089.7 1724.2 1088.5 1722.8 1067.3"/>
  <path class="st14" d="M1691.8,1028.2l-6.5,210.7-27.9,135.7s-44.1-4.4-71.2-30.2l34.7-102.1,11.9-213.4,58.9-.6h0Z"/>
  <polygon class="st10" points="1691.8 1028.2 1685.3 1236 1653.2 1076.7 1691.8 1028.2"/>
  <path class="st14" d="M1781.5,1041.6l-57.3,341.6s76,9.3,107.2-11.2l-17-112.3,20.7-190.6-53.8-27.4h0Z"/>
  <polygon class="st10" points="1781.5 1041.6 1748.1 1241.8 1808 1090.8 1781.5 1041.6"/>
  <path class="st3" d="M1403.1,840.8c3.1,10.7,4,22.2,17.5,27.9,0,0-2,35.4-.5,64.4,0,0,32.7-36.9,32.7-36.9-1.9-11.7-3.4-33.8-1.6-46.4.5-3.3,1.1-6.5,1.6-9.8,1.4-7.9,3.7-16-1.1-25.6-18.7-37-12.4-49.2-15-51-4.2-1.8-14,5.6-8.4,23.8,5.4,17.6,4.1,26.2,4.1,26.2,0,0-14.1-2.7-19.1,2.3-2.3,2.2-13.7,12.6-10.1,25.1h0Z"/>
  <path class="st7" d="M1410.7,890.6c19.1-6.3,29.1-9.2,43.9-9.2,35.1,104.5,60,143.8,49.6,173.8-8.7,25-36.2,23-49.6,4.3-17.7-24.7-33.4-118.6-43.9-168.8Z"/>
  <polygon class="st7" points="1835.3 1069.1 1945.7 1241.8 2076.9 1315.9 2036.4 1356.1 1904.8 1298.5 1814.6 1171.1 1835.3 1069.1"/>
  <path class="st2" d="M1732.2,1064.8s-16.2,16.4-31.2,20.6l-17.7-46.7,9-12,39.9,38.1h0Z"/>
  <path class="st2" d="M1732.2,1064.8s9.3,15.9,27,25.8l25.7-42.7-6.7-13.6-46,30.4Z"/>
  <g id="_с">
    <path id="_с-2" class="st12" d="M1852.4,1556.6h-964.2c-22.7,0-41-12.4-41-27.6h0c0-15.2,18.4-27.6,41-27.6h964.2c22.7,0,41,12.4,41,27.6h0c0,15.2-18.4,27.6-41,27.6h0Z"/>
    <path class="st12" d="M1249.6,1945.7h0c-10.3,0-16.5-11.5-10.9-20.1l254.6-390.1,21.8,14.2-254.6,390.1c-2.4,3.7-6.5,5.9-10.9,5.9h0Z"/>
    <path class="st12" d="M1491.1,1945.7h0c10.3,0,16.5-11.5,10.9-20.1l-254.6-390.1-21.8,14.2,254.6,390.1c2.4,3.7,6.5,5.9,10.9,5.9h0Z"/>
  </g>
  <g id="_с-3">
    <path id="_с-4" class="st13" d="M1890.8,1939.5h0c-6.9,0-12.5-5.6-12.5-12.5v-220.8h24.9v220.8c0,6.9-5.6,12.5-12.5,12.5h0Z"/>
    <path id="_с-5" class="st13" d="M1978.2,1939.5h0c-6.9,0-12.5-5.6-12.5-12.5v-220.8h24.9v220.8c0,6.9-5.6,12.5-12.5,12.5h0Z"/>
    <path id="_с-6" class="st13" d="M2093,1939.5h0c-6.9,0-12.5-5.6-12.5-12.5v-220.8h24.9v220.8c0,6.9-5.6,12.5-12.5,12.5h0Z"/>
    <path id="_с-7" class="st13" d="M2180.5,1939.5h0c-6.9,0-12.5-5.6-12.5-12.5v-220.8h24.9v220.8c0,6.9-5.6,12.5-12.5,12.5h0Z"/>
    <path id="_с-8" class="st12" d="M2042.6,1378.5v262.8c0,3-2.4,5.4-5.4,5.4h-162.9c-16.4,0-29.8,13.3-29.8,29.8h0c0,16.4,13.3,29.8,29.8,29.8h198.1c16.4,0,29.8-13.3,29.8-29.8v-298c0-16.4-13.3-29.8-29.8-29.8h0c-16.4,0-29.8,13.3-29.8,29.8h0Z"/>
    <rect id="_с-9" class="st12" x="2072.3" y="1348.8" width="128.8" height="302.8"/>
    <path id="_с-10" class="st13" d="M2171.4,1378.5v262.8c0,3-2.4,5.4-5.4,5.4h-162.9c-16.4,0-29.8,13.3-29.8,29.8h0c0,16.4,13.3,29.8,29.8,29.8h198.1c16.4,0,29.8-13.3,29.8-29.8v-298c0-16.4-13.3-29.8-29.8-29.8h0c-16.4,0-29.8,13.3-29.8,29.8h0Z"/>
  </g>
  <g id="_с-11">
    <path id="_с-12" class="st13" d="M837.7,1939.5h0c6.9,0,12.5-5.6,12.5-12.5v-220.8h-24.9v220.8c0,6.9,5.6,12.5,12.5,12.5h0Z"/>
    <path id="_с-13" class="st13" d="M750.2,1939.5h0c6.9,0,12.5-5.6,12.5-12.5v-220.8h-24.9v220.8c0,6.9,5.6,12.5,12.5,12.5h0Z"/>
    <path id="_с-14" class="st13" d="M635.4,1939.5h0c6.9,0,12.5-5.6,12.5-12.5v-220.8h-24.9v220.8c0,6.9,5.6,12.5,12.5,12.5h0Z"/>
    <path id="_с-15" class="st13" d="M548,1939.5h0c6.9,0,12.5-5.6,12.5-12.5v-220.8h-24.9v220.8c0,6.9,5.6,12.5,12.5,12.5h0Z"/>
    <path id="_с-16" class="st12" d="M685.9,1378.5v262.8c0,3,2.4,5.4,5.4,5.4h162.9c16.4,0,29.8,13.3,29.8,29.8h0c0,16.4-13.3,29.8-29.8,29.8h-198.1c-16.4,0-29.8-13.3-29.8-29.8v-298c0-16.4,13.3-29.8,29.8-29.8h0c16.4,0,29.8,13.3,29.8,29.8h0Z"/>
    <rect id="_с-17" class="st12" x="527.3" y="1348.8" width="128.8" height="302.8"/>
    <path id="_с-18" class="st13" d="M557.1,1378.5v262.8c0,3,2.4,5.4,5.4,5.4h162.9c16.4,0,29.8,13.3,29.8,29.8h0c0,16.4-13.3,29.8-29.8,29.8h-198.1c-16.4,0-29.8-13.3-29.8-29.8v-298c0-16.4,13.3-29.8,29.8-29.8h0c16.4,0,29.8,13.3,29.8,29.8h0Z"/>
  </g>
  <path class="st14" d="M1976.3,1278.1c-27.5-9.9-69.9-31.6-41.7-71.2s27.5-22.3,17.3-70.5,24.1-86,56.7-76.4c32.6,9.6,41,36,80.9,29.3,40-6.7,73.2,30.7,58.2,63.2s-21.5,48.1-7.4,66c14.1,17.9,77.5,37.3,51,80.3-26.4,43-38.6,40.4-29.4,62.4,9.2,22.1-12,47.2-48.8,43.7s-70.1-17.3-83.5-58.4c-13.5-41.1-53.3-68.4-53.3-68.4h0Z"/>
  <path class="st3" d="M1879,1903.2l-21.7,6.5-16.4-16.7c.8-1.2,0-12.4-2.5-24.3l40.6-6.7c1.6,12.4,0,28.8,0,41.3h0Z"/>
  <path class="st4" d="M1857.4,1905.8c-5.2-13.6-16.2-15.1-16.2-15.1-21.5,28.6-74.2,11.1-72.4,49.8,80.1-.5,113.4,0,113.4,0-.1-8.9-1.7-30-3.5-38.3l-4.2.7-17.1,2.8h0Z"/>
  <path class="st3" d="M1734.5,1907.3l-22.6,1.6-13-13.8c1-1,3.5-18.1,3.6-30.3l38.1,1.7c-1.1,12.4-3.4,28.7-6.1,40.9h0Z"/>
  <path class="st4" d="M1714.4,1905.8c-5.2-13.6-16.2-15.1-16.2-15.1-21.5,28.6-74.2,11.1-72.4,49.8,80.1-.5,113.4,0,113.4,0-.1-8.9-1.7-30-3.5-38.3l-4.2.7-17.1,2.8h0Z"/>
  <path class="st5" d="M1963.3,1529.1c-61.7,8.3-235.7,72.8-245.4,84.4-20,24.1-9.5,155.2-19,263.3l50.6,3c24.2-88.1,22.3-126.1,33.2-227.1,0,0,198.7,14.9,270.5-33.6,74-50-40-101.9-90-90h0Z"/>
  <path class="st15" d="M1882.8,1400.7c14.6,2.5,20.2,14.2,23.7,35.8-55.6,32.8-138.2,35.1-138.2,35.1l-26.3-13s66.2-23.8,140.8-57.8Z"/>
  <path class="st15" d="M2034.8,1339.1c-24.3,35.3-117.5,111.4-132.9,113.8l-18.7-52.3s91-98.5,107.6-115.9c28.6-30.2,83.9-3.2,44.1,54.4h0Z"/>
  <path class="st6" d="M1932.3,1333.4c19.5-21,44.9-68.5,78-65.1,33.1,3.4,35.4,38.5,25.5,57.3s-44.4,65.4-44.4,65.4l-59.1-57.7h0Z"/>
  <path class="st3" d="M1938.3,1422.3c14,4.8,22,49,18.1,52.3-60.1,23.8-185.1-1.9-185.1-1.9l-6.6-22.6s94.7-5.8,173.6-27.8Z"/>
  <path class="st4" d="M2136,1566.2c-13.7-70.9-19.7-96-25.4-129.4-14.1-82.4,27.4-140.4-43.7-179.9l-51.8,8.3c-41.9,44.1-67.7,84.1-69.9,111.7-3,35.7,32.3,55,32.3,55l-14.2,97.1s-3.3,7.9,55.1,19c58.4,11,117.6,18.2,117.6,18.2h0Z"/>
  <path class="st3" d="M2093.4,1349.1c-24.3,35.8-128.3,126.6-143.9,127.4l-11.2-54.2s94.4-110.7,111-128.3c28.6-30.6,83.9-3.2,44.1,55.1h0Z"/>
  <path class="st6" d="M1994,1349.4c18.2-26.4,54.8-75.2,87.8-71.8,33.1,3.4,35.4,38.5,25.5,57.3-10,18.9-44.4,65.4-44.4,65.4l-68.9-51h0Z"/>
  <path class="st3" d="M1764.7,1450.1c-19.1-4.7-60.7-18.7-77.4,25.1,4.2,8,19.6-11.8,26.2-13.6,10.5-2.9,19.5,2.6,27.4,10.2,11.4,10.9,30.4,1,30.4,1l-6.6-22.6Z"/>
  <path class="st6" d="M1749.8,1501h-179.5v-24.1h203.6c0,13.3-10.8,24.1-24.1,24.1Z"/>
  <path class="st6" d="M1477.9,1349.5l92.3,151.4,21.3-11.2-103.5-172.8h0c-11.8,6.2-16.3,20.8-10.1,32.6h0Z"/>
  <path class="st3" d="M2090.6,1189.4c-8.7,36.5-39,60.5-67.7,53.6s-44.8-42-36-78.4c8.7-36.5,39-60.5,67.7-53.6,28.6,6.9,44.8,42,36,78.4Z"/>
  <path class="st3" d="M2076.7,1208.6l-47.6,29.5s-4.2,21-6.3,27.9c-4.3,14.1,12.3,20.2,26.4,11.5,14.1-8.8,17.7-20.5,17.7-20.5l9.8-48.3h0Z"/>
  <path class="st14" d="M1983.6,1150.7c13.5,1.2,42.8-1.2,53.5-13.8,7.6,25.7,40,50.2,66.8,61.7,1.1-26.4.9-74.9-46.4-95.1-37.2-15.8-73.8,47.3-73.8,47.3Z"/>
  <path d="M2000.3,1174.2c-1.3,2.5-4.3,3.6-6.9,2.3-2.5-1.3-3.6-4.3-2.3-6.9s4.3-3.6,6.9-2.3c2.5,1.3,3.6,4.3,2.3,6.9Z"/>
  <path d="M2040.5,1184.1c-1.4,2.7-4.7,3.8-7.4,2.5-2.7-1.4-3.9-4.7-2.5-7.4,1.4-2.7,4.7-3.9,7.4-2.5,2.7,1.4,3.9,4.7,2.5,7.4Z"/>
  <path class="st14" d="M2046.7,1179.5c-.4-.2-.7-.5-.9-.9-2.8-6-10.3-7.2-10.4-7.2-1.1-.2-1.8-1.1-1.6-2.2s1.1-1.8,2.2-1.6c.4,0,9.6,1.4,13.3,9.4.4,1,0,2.1-.9,2.6-.6.3-1.2.2-1.7,0h0Z"/>
  <path class="st14" d="M1989.2,1166.7c-.2,0-.4-.2-.5-.4-.8-.8-.7-2,0-2.7,5.9-5.8,13.1-3.4,13.4-3.3,1,.3,1.5,1.4,1.2,2.4-.3,1-1.4,1.5-2.4,1.2-.2,0-5.3-1.7-9.5,2.4-.6.6-1.5.7-2.2.3h0Z"/>
  <path class="st15" d="M2003.6,1185.3c-2.8,2.9-5.3,5.9-8,7.6-.9.6-1.2,1.8-.7,2.7,2.2,3.8,8.5,7,12.4,8.7.6.2,1-.5.6-.9-3.9-3.4-5.6-6-6.3-7.3-.3-.7-.3-1.5,0-2.2.8-1.6,2.4-4.8,3.5-7.5.4-.9-.8-1.7-1.5-1h0Z"/>
  <path class="st3" d="M2076.8,1189.6c-7,5.4-9,14.4-4.6,20.1s13.7,5.9,20.6.5c7-5.4,9-14.4,4.6-20.1s-13.7-5.9-20.6-.5Z"/>
  <path class="st15" d="M2080.8,1208.1c-.3-.1-.5-.3-.7-.6-2.7-3.6-2.9-7.6-.7-10.7,2.3-3.2,6.6-4.7,10.2-3.5,1,.3,1.6,1.4,1.2,2.4-.3,1-1.4,1.6-2.4,1.2-2-.7-4.5.3-5.8,2.1-1.2,1.8-1,3.9.6,6.1.6.8.5,2.1-.4,2.7-.6.4-1.4.5-2,.2h0Z"/>
  <path class="st0" d="M2032.3,1540.3c-61.7,8.3-235.9,64.8-245.6,76.4-20,24.1,24.6,127.2,38.8,260h59.6c-.6-94.6,6.9-181.7-22.2-212.5,0,0,167-11.1,250.2-11.1s65.9-143.4-80.8-112.8h0Z"/>
  <path class="st2" d="M2001,1216c-.8-1.1,0-2.7,1.4-2.5,3.5.4,9.3,1,14.8,1,5.5,0,11.3-.6,14.8-1,1.4-.2,2.3,1.4,1.4,2.5-2.5,3.4-7.8,8.6-16.2,8.6-8.4,0-13.7-5.2-16.2-8.6Z"/>
  <path class="st3" d="M815.4,1438.4c-11.8,7.8-8.5,50.6-4.1,52.8,61.3,7.5,164.9-43.3,164.9-43.3l4.1-22.7s-86.5,14.5-164.8,13.2h0Z"/>
  <path class="st3" d="M680.7,1364.3c21.9,35.1,117.8,125.7,132.7,127l12.7-51.4s-86.1-109.2-101.3-126.6c-26.2-30.2-80-6.2-44.1,51Z"/>
  <path class="st14" d="M733.1,1177c2.6-35.9-7.7-67.6-36.3-83.7-29-16.4-65.3-.3-65.3-.3h0s-30.8-10.9-58.6,19.8-6.8,57.7-18.2,80.1c-6.8,13.3-41.1,16-32.2,59.2,2.6,12.5,17.5,20.8,30.2,21.7,22.3,1.5,43-7.2,52.1,1.5,29.8,28.4,95.8,18.1,105-7.8,2.9-8.1,62.2,7.5,56.3-47.3-3-27.8-35.3-10.9-32.9-43h0Z"/>
  <polygon class="st3" points="678.7 1293 631.6 1284.3 613.9 1307.8 651.5 1384.8 706.7 1337.9 678.7 1293"/>
  <path class="st0" d="M739.8,1478.6c-.8-14.7,22.9-74.8,10.4-105.1-9.1-24.4-24.2-65.3-42.8-72.1-8.8-3.2-17.8-5.5-28.7-8.5,0,0,6.2,30.7-6.7,31.7-24.7,2-40.5-40.4-40.5-40.4-13.3-1.3-74.4,18.8-74.4,23.8.1,39.3,32.1,96.6,42.5,139.1,4.1,45.9-11.9,100.8-12,106,0,0,98.3,27.6,156.5-4.4,1.2-4.5-3.4-49.9-4.5-70.2h0Z"/>
  <path class="st0" d="M602.5,1506.1s-21.7,54.7-27,89.2,24.6,56.6,24.6,56.6h248.3s26.6-43.1,18.9-72.9c-7.7-29.8-25.3-34.5-25.3-34.5l-239.6-38.4h0Z"/>
  <path class="st15" d="M851.8,1542.9c-31.7-4.5-123.7,31.3-163,108.9h109.8l53.2-108.9Z"/>
  <path class="st15" d="M817,1571.5c4.1-4.5,7.8-10,11.1-15.8,9.2-16.3,31.6-19.1,44.2-5.2,45.8,50.5,143.3,165.5,165.1,179.8,6.1,4,42,24.7,76.1,20.6,0,0,16.8,6.4,5.6,19.8-5.8,6.9-92.4,14-92.4,14l-6.8-25.4c-50.4-37.3-113.2-34.6-166.4-102.9-29.3-37.6-36.5-84.9-36.5-84.9h0Z"/>
  <path class="st4" d="M1044.2,1799.4l34.9,22.6,4.8-5.7-28.3-26.4c16.1-12.7,53.3-2.1,53.3-2.1,12.2-7.9,35.9-33.4,38.4-47.1-7.8-9.7-33.8,10.3-33.8,10.3.9,4.3-7.3,19.3-13.8,21.9-28.4,6.1-56.7-1.9-79.8-13.7,0,0-19.3,29.2,24.3,40.1h0Z"/>
  <path class="st3" d="M816.5,1578.4c-6.3,1.7-11.1,7-12,13.5-2.5,17.6-15.3,53.3,2,90.6,42.6,91.7,67.7,152.1,72.2,175.8-11.1,20.8,33.2,77.8,33.9,81.5l31.9-10s-18.3-27.2-24.9-37.9c-15.7-25.4-18.3-56.6-20.8-80.8-10.9-103.2,7.8-168.3-66.8-228.9-4.4-3.6-10-5.3-15.5-3.9Z"/>
  <path class="st4" d="M862.8,1902l3.2,41.4,7.5.3,3.8-38.5c19.8,5.1,34,41.1,34,41.1,13.7,4.9,48.3,8.3,60.7,2,3-12.1-28.7-20.6-28.7-20.6-2.9,3.4-19.8,6-25.8,2.3-22.1-18.9-34.1-46.2-38.8-71.7,0,0-33.7,2.4-15.9,43.7h0Z"/>
  <path class="st3" d="M666.8,1254.5l-38.3-5.7,3,35.5s7.3,16.1,15.8,17.2l31.3-8.5-11.9-38.5h0Z"/>
  <path class="st3" d="M593.1,1203.1c9.9,41.3,44.2,68.4,76.6,60.7,32.4-7.8,50.7-47.5,40.8-88.8s-44.2-68.4-76.6-60.7-50.7,47.5-40.8,88.8Z"/>
  <path d="M695.3,1185.9c1.4,2.9,4.9,4,7.8,2.6,2.9-1.4,4-4.9,2.6-7.8-1.4-2.9-4.9-4-7.8-2.6-2.9,1.4-4,4.9-2.6,7.8Z"/>
  <path d="M649.8,1197.1c1.5,3.1,5.3,4.4,8.4,2.8,3.1-1.6,4.4-5.3,2.8-8.4-1.5-3.1-5.3-4.4-8.4-2.8s-4.4,5.3-2.8,8.4Z"/>
  <path class="st14" d="M642.8,1191.9c.4-.2.8-.6,1-1,3.1-6.8,11.6-8.1,11.7-8.1,1.2-.2,2-1.3,1.8-2.5-.2-1.2-1.3-2-2.5-1.8-.4,0-10.9,1.6-15.1,10.6-.5,1.1,0,2.4,1.1,2.9.6.3,1.3.3,1.9,0h0Z"/>
  <path class="st14" d="M707.9,1177.5c.2,0,.4-.2.6-.4.8-.9.8-2.2,0-3.1-6.7-6.6-14.9-3.8-15.2-3.7-1.1.4-1.7,1.6-1.3,2.8.4,1.1,1.6,1.7,2.8,1.3.3,0,6-1.9,10.7,2.7.7.7,1.7.8,2.5.4h0Z"/>
  <path class="st15" d="M691.5,1198.5c3.2,3.3,6,6.6,9,8.6,1,.7,1.3,2,.8,3.1-2.5,4.3-9.6,7.9-14,9.8-.6.3-1.2-.6-.6-1,4.4-3.9,6.3-6.8,7.1-8.3.4-.8.4-1.7,0-2.5-.9-1.8-2.7-5.4-3.9-8.5-.4-1,.9-1.9,1.7-1.1h0Z"/>
  <path class="st3" d="M608.7,1203.4c7.9,6.1,10.2,16.3,5.2,22.8-5,6.4-15.5,6.7-23.3.6-7.9-6.1-10.2-16.3-5.2-22.8,5-6.4,15.5-6.7,23.3-.6h0Z"/>
  <path class="st15" d="M604.2,1224.3c.3-.2.6-.4.8-.6,3-4,3.3-8.5.8-12.1-2.6-3.6-7.5-5.3-11.5-3.9-1.1.4-1.8,1.6-1.4,2.8.4,1.1,1.6,1.8,2.8,1.4,2.2-.7,5.1.3,6.6,2.3,1.4,2,1.2,4.4-.7,6.9-.7,1-.5,2.3.4,3.1.7.5,1.6.6,2.3.2h0Z"/>
  <path class="st2" d="M655.7,1231.4c-.9-1.2,0-2.9,1.6-2.8,3.9.5,10.3,1.1,16.4,1.1s12.5-.6,16.4-1.1c1.5-.2,2.5,1.5,1.6,2.8-2.8,3.8-8.6,9.5-18,9.5s-15.2-5.8-18-9.5h0Z"/>
  <path class="st14" d="M592.3,1199.5c38.7-5.2,92.8-44.6,97.2-64.8-7.5-24.3-47.3-36.5-69.8-25.2-22.5,11.2-43.8,59.5-27.4,90.1h0Z"/>
  <path class="st2" d="M954.1,1492h0c-5.2-1.7-8-7.2-6.3-12.4l59.7-182.9c1.7-5.2,7.2-8,12.4-6.3h0c5.1,1.7,8,7.2,6.3,12.4l-59.7,182.9c-1.7,5.2-7.2,8-12.4,6.3h0Z"/>
  <path class="st3" d="M985.9,1426.4l12.2-37.3s10.5,21.4,0,41.8c-10.5,20.3-20.6,21.3-20.6,21.3l8.4-25.8h0Z"/>
  <path class="st3" d="M968.5,1416.4c-3.1-7.2-10.3-25.3-3.1-25.2s8.4,8.9,8.4,8.9l-5.3,16.4h0Z"/>
  <path class="st3" d="M370.4,1307.5c16.4-16.6,5.6-33.6,5.6-33.6,9-1.9,56.5,70.1,77,115.8,35.8-36,98.7-84.7,115.8-87.5,0,0,23-6.2,31.2,21.6,7.4,24.8-21.4,42.4-21.4,42.4,0,0-123,86.8-141.1,79.1-28.3-12-53.9-115.3-67.2-137.8h0Z"/>
  <path class="st3" d="M344.7,1305.5c10,.6,22.4-4.3,26.3,4.7l19.8-9.7,1.2-11.9c-17-27.3-58.5-35-62.6-35.4-10.7-.9-15.6-2-16.5-.6-.8,1.4-3.5,10.9,12,12.8,19.4,2.3,6.5,17.9-32.9,3.1-9.9-3.7-28.4,1.1-21.7,8.3,7.4,7.9,28.7,26,74.3,28.7h0Z"/>
  <path class="st0" d="M1417.5,750.3c0,9-1.6,17.8-4.4,26.1-14.5,41.7-63.1,72.4-120.7,72.4s-106.2-30.7-120.7-72.4c-2.9-8.3-4.4-17.1-4.4-26.1h250.3,0Z"/>
  <path class="st5" d="M1417.5,750.3c0,9-1.6,17.8-4.4,26.1h-241.4c-2.9-8.3-4.4-17.1-4.4-26.1h250.3,0Z"/>
  <path class="st1" d="M1554.5,328c0-144.6-117.2-261.9-261.7-262.1-142.6-.2-259.9,114.7-262.4,257.3-1.1,62.4,19.6,119.9,54.9,165.4,44.7,57.6,69.6,128.2,69.6,201.1v1.3h275.2v-1.3c0-73,25-143.6,69.7-201.4,34.3-44.3,54.8-99.9,54.8-160.3h0Z"/>
  <path class="st2" d="M1332,661.4c-.7,0-1.5-.1-2.2-.4-3.5-1.2-5.3-5-4.1-8.5.3-.9,31.2-89.9,53.7-180.6,39.8-160.7,19.3-186.9,8.7-190.6-31.3-11.1-56.3,5.3-71.7,21-4.5,4.6-8.9,9.8-13,15.5,6.7,11.6,12.7,24.4,17.8,37.9,13.9,37.1,17.6,71.7,9.9,92.6-5.9,16.1-18.6,24.3-35.6,23.1-16-1.2-27.8-10.5-33.9-26.8-7.1-18.8-6.2-46.3,2.5-75.6,5.5-18.5,13.6-36.3,23.5-51.7-9.2-14.6-19.9-27.2-31.6-35.7-17.2-12.6-33.4-13.1-48.2-1.6-30.3,23.7-31.5,95.1-3.4,206.4,21.7,85.8,53.6,165.1,53.9,165.9,1.4,3.4-.3,7.3-3.7,8.7-3.4,1.4-7.3-.3-8.7-3.7-.3-.8-32.5-80.8-54.4-167.5-30-118.6-27.3-192.7,8.1-220.4,19.4-15.2,42.3-14.7,64.3,1.4,11,8,22,20.1,31.8,34.9,3.5-4.6,7.2-8.8,11-12.7,25.6-26.1,56.1-34.8,85.7-24.3,18.4,6.5,26,31.4,23.1,75.9-2.1,32.9-10,76.8-23.3,130.6-22.6,91.3-53.7,180.8-54,181.7-1,2.8-3.6,4.5-6.3,4.5h0ZM1295.2,330.3c-7.6,12.9-13.9,27.3-18.3,42.3-7.7,26.2-8.8,51.3-2.8,67.1,4.3,11.4,11.6,17.4,22.4,18.2,11.1.8,18.1-3.7,22-14.3,8.9-24.1-1.9-73.4-23.2-113.4h0Z"/>
  <path class="st0" d="M1177.9,658h228.8c27.3,0,49.4,22.1,49.4,49.4v2.1c0,27.3-22.1,49.4-49.4,49.4h-228.8c-27.3,0-49.4-22.1-49.4-49.4v-2.1c0-27.3,22.1-49.4,49.4-49.4h0Z"/>
  <path class="st1" d="M1737.7,338.8h-85.7c-12.2,0-22.1-9.9-22.1-22.1h0c0-12.2,9.9-22.1,22.1-22.1h85.7c12.2,0,22.1,9.9,22.1,22.1h0c0,12.2-9.9,22.1-22.1,22.1Z"/>
  <path class="st1" d="M932.8,338.8h-85.7c-12.2,0-22.1-9.9-22.1-22.1h0c0-12.2,9.9-22.1,22.1-22.1h85.7c12.2,0,22.1,9.9,22.1,22.1h0c0,12.2-9.9,22.1-22.1,22.1Z"/>
  <path class="st1" d="M987.2,157.5l-68.2-51.9c-9.7-7.4-11.6-21.2-4.2-31h0c7.4-9.7,21.2-11.6,31-4.2l68.2,51.9c9.7,7.4,11.6,21.3,4.2,31h0c-7.4,9.7-21.2,11.6-31,4.2Z"/>
  <path class="st1" d="M1593.1,157.5l68.2-51.9c9.7-7.4,11.6-21.2,4.2-31h0c-7.4-9.7-21.2-11.6-30.9-4.2l-68.2,51.9c-9.7,7.4-11.6,21.3-4.2,31h0c7.4,9.7,21.2,11.6,30.9,4.2Z"/>
  <path class="st1" d="M987.2,503.4l-68.2,51.9c-9.7,7.4-11.6,21.2-4.2,31h0c7.4,9.7,21.2,11.6,31,4.2l68.2-51.9c9.7-7.4,11.6-21.2,4.2-31h0c-7.4-9.7-21.2-11.6-31-4.2Z"/>
  <path class="st1" d="M1593.1,503.4l68.2,51.9c9.7,7.4,11.6,21.2,4.2,31h0c-7.4,9.7-21.2,11.6-30.9,4.2l-68.2-51.9c-9.7-7.4-11.6-21.2-4.2-31h0c7.4-9.7,21.2-11.6,30.9-4.2Z"/>
  <path id="Vector_25" class="st0" d="M1349.2,1408.5s-19.7-37.2-27.6-76.6c-6.8-33.7-6.5-73.9-5.7-95.4.2-4.9,6.6-6.6,9.2-2.4,12.4,20.3,34.8,61,39.9,97.9,3.6,25.4,5.9,51,7,76.6h-22.7s0,0,0,0Z"/>
  <path id="Vector_26" class="st0" d="M1369.8,1408.5s13.1-45.5,27.6-75.8c10.5-22.1,34.4-48.4,46.7-61.2,2.3-2.4,6.4-.3,5.8,3-3.2,16.8-10.4,49.9-22.3,72.6-16.6,31.5-44.1,61.5-44.1,61.5h-13.6,0Z"/>
  <path id="Vector_27" class="st5" d="M1302.2,1368.2c-1.9-3.7,1.6-7.8,5.6-6.5,9.9,3.3,19.1,8.7,27,15.7,14.7,13.4,17.4,28.6,17.4,28.6l-5.1,1.7s-27.4-5-45-39.5h0Z"/>
  <path id="Vector_28" class="st5" d="M1405.1,1261.9c-.3-4.7-6.4-6.4-9.1-2.6-10.3,14.3-27.5,42.4-33.1,76.9-7.1,43,1.2,72.3,1.2,72.3h5.8s21.4-40.5,29.7-68c7.9-25.9,6.9-60.3,5.6-78.7h0Z"/>
  <path id="Vector_29" class="st5" d="M1383.4,1408.5s12.3-41,54.4-56.6c2.4-.9,4.8,1.6,3.8,4-5.6,13.5-21.4,45.9-48.1,52.6h-10.1s0,0,0,0Z"/>
  <path id="Vector_23" class="st13" d="M1420.6,1401.6h-97.4l12.5,99.8h72.4l12.5-99.8h0Z"/>
  <path class="st4" d="M1315.9,1479.7v14.3h3.9c1.9,0,3.4,1.5,3.4,3.4v.6c0,1.9-1.5,3.4-3.4,3.4h-166.3c-2.2,0-4-1.8-4-4v-20.6c0-2.2,1.8-4,4-4h166.3c1.9,0,3.4,1.5,3.4,3.4h0c0,1.9-1.5,3.4-3.4,3.4h-3.9Z"/>
  <path class="st2" d="M1170.9,1479.7h145.4v14.3h-145.4c-1.6,0-2.9-1.3-2.9-2.9v-8.5c0-1.6,1.3-2.9,2.9-2.9h0Z"/>
  <path class="st0" d="M1134.8,1448.7v15.9h-3.9c-1.9,0-3.4,1.7-3.4,3.8v.6c0,2.1,1.5,3.8,3.4,3.8h166.3c2.2,0,4-2,4-4.4v-22.8c0-2.4-1.8-4.4-4-4.4h-166.3c-1.9,0-3.4,1.7-3.4,3.8h0c0,2.1,1.5,3.8,3.4,3.8h3.9Z"/>
  <path class="st2" d="M1279.6,1464.6h-145.3v-15.8h145.3c1.7,0,3.1,1.4,3.1,3.1v9.7c0,1.7-1.4,3.1-3.1,3.1h0Z"/>
  <rect class="st4" x="1141" y="1400.8" width="163.7" height="25.7" rx="6.1" ry="6.1"/>
  <path class="st13" d="M1156.3,1426.5h154.6c2.5,0,4.6,2.1,4.6,4.6v5.5c0,2.5-2.1,4.6-4.6,4.6h-154.6c-2.5,0-4.6-2.1-4.6-4.6v-5.5c0-2.5,2.1-4.6,4.6-4.6h0Z"/>
</svg>